<svg width="117" height="216" viewBox="0 0 117 216" fill="none" xmlns="http://www.w3.org/2000/svg">
<g id="student">
<g id="student_2">
<path id="Vector" d="M32.5549 46.9541C26.9913 64.9482 35.5507 86.9011 44.0712 88.6518C45.4577 88.8482 46.8603 88.9068 48.2584 88.8269C52.6354 88.7345 56.0397 87.8056 62.5419 85.977C64.8029 85.2645 67.1147 84.7247 69.4575 84.3624C69.4575 84.3624 71.6703 84.056 73.8928 84.0025C81.144 83.8226 91.6292 90.7187 97.4603 90.2227C107.289 89.3813 120.264 66.1203 113.859 45.5583C108.476 28.2693 90.7198 17.1519 72.9201 17.3805C53.8123 17.6236 37.5252 30.8955 32.5549 46.9541Z" fill="#383333"/>
<path id="Vector_2" d="M39.222 49.6775C38.8087 49.3176 36.5472 47.4209 33.4931 47.8246C33.0457 47.8829 31.2657 48.1164 30.1277 49.3127C27.1708 52.4155 28.8973 61.5731 34.4317 63.6351C37.5199 64.7828 40.6518 63.2898 41.7266 62.7257L39.222 49.6775Z" fill="#FF8C5F"/>
<path id="Vector_3" d="M36.4063 60.6929C36.3491 60.6927 36.2938 60.672 36.2506 60.6345C34.816 59.4041 34.1254 58.0764 34.1935 56.6952C34.2713 55.0904 35.3509 53.8162 36.0707 53.145L31.6937 53.6022C31.6292 53.6093 31.5646 53.5905 31.514 53.5499C31.4633 53.5093 31.4309 53.4503 31.4238 53.3858C31.4167 53.3213 31.4356 53.2566 31.4761 53.206C31.5167 53.1554 31.5758 53.123 31.6402 53.1159L36.8342 52.576C36.8877 52.5704 36.9414 52.5826 36.9872 52.6108C37.0329 52.6389 37.0681 52.6814 37.0871 52.7317C37.1059 52.7825 37.1075 52.838 37.0917 52.8899C37.0758 52.9417 37.0435 52.9869 36.9996 53.0186C36.9753 53.0186 34.8014 54.5943 34.7041 56.7244C34.6458 57.9451 35.278 59.1561 36.5911 60.2649C36.629 60.2973 36.656 60.3407 36.6685 60.389C36.681 60.4373 36.6783 60.4883 36.6607 60.5351C36.6432 60.5818 36.6117 60.622 36.5705 60.6503C36.5294 60.6785 36.4805 60.6934 36.4306 60.6929H36.4063Z" fill="black"/>
<path id="Vector_4" d="M106.097 48.2769C106.501 47.8975 108.68 45.9133 111.748 46.1954C112.201 46.2343 113.985 46.3948 115.153 47.5474C118.231 50.5237 116.874 59.7445 111.432 62.0254C108.388 63.3044 105.202 61.9378 104.137 61.4175C104.795 57.0373 105.449 52.6571 106.097 48.2769Z" fill="#FF8C5F"/>
<path id="Vector_5" d="M109.365 59.1657C109.333 59.1662 109.3 59.16 109.27 59.1474C109.24 59.1349 109.213 59.1163 109.19 59.0928C109.167 59.0702 109.149 59.0433 109.137 59.0137C109.125 58.984 109.118 58.9522 109.118 58.9201C109.118 58.888 109.125 58.8563 109.137 58.8266C109.149 58.797 109.167 58.7701 109.19 58.7475C110.455 57.5657 111.043 56.3499 110.931 55.1292C110.746 53.004 108.5 51.5353 108.5 51.5207C108.454 51.4926 108.42 51.4497 108.402 51.3993C108.384 51.3488 108.384 51.2938 108.402 51.2435C108.418 51.1918 108.45 51.1468 108.494 51.1159C108.538 51.085 108.592 51.0699 108.645 51.0732L113.859 51.4039C113.923 51.4085 113.983 51.4384 114.026 51.4872C114.068 51.536 114.09 51.5996 114.085 51.6641C114.081 51.7286 114.051 51.7887 114.002 51.8311C113.953 51.8735 113.889 51.8948 113.825 51.8903L109.409 51.6131C110.153 52.255 111.286 53.4806 111.427 55.0855C111.549 56.4618 110.912 57.8137 109.531 59.1025C109.486 59.1445 109.426 59.1672 109.365 59.1657Z" fill="black"/>
<path id="Vector_6" d="M72.9199 82.2372C93.4752 82.2372 110.139 65.5738 110.139 45.0185C110.139 24.4632 93.4752 7.7998 72.9199 7.7998C52.3645 7.7998 35.7012 24.4632 35.7012 45.0185C35.7012 65.5738 52.3645 82.2372 72.9199 82.2372Z" fill="#FFB08D"/>
<path id="Vector_7" d="M85.3262 76.0413C84.5286 79.9028 83.8283 86.2542 86.7851 92.3333C91.5171 101.977 100.504 100.567 106.413 107.516C117.283 120.253 100.748 141.044 102.362 174.177C102.929 185.11 105.305 195.873 109.395 206.027C99.8933 210.474 89.7562 213.411 79.3492 214.732C56.7106 217.582 38.4976 211.97 29.0288 208.25C33.8024 194.194 35.9456 179.38 35.3511 164.548C35.0933 158.678 34.607 158.065 34.2179 150.109C32.8659 123.774 30.2398 108.008 39.7718 102.891C49.7707 97.5176 61.9435 95.1102 64.5745 89.7606C67.2056 84.411 67.191 73.4443 67.191 73.4443C67.191 73.4443 73.4743 66.7816 85.3262 76.0413Z" fill="#AAEEEA"/>
<path id="Vector_8" d="M85.5348 89.0457C85.5348 89.0457 75.531 94.0938 64.8999 89.0457L65.3425 80.9484H85.4084C85.4537 83.6491 85.4959 86.3482 85.5348 89.0457Z" fill="#FF8C5F"/>
<path id="Vector_9" d="M35.9106 48.9821C38.425 66.6504 49.2555 80.8657 63.8453 85.2038C66.1846 85.8944 75.5853 88.4087 86.0657 84.2749C99.6829 78.9253 108.991 64.7537 110.139 47.8635C110.139 47.8635 62.7851 15.9069 35.9106 48.9821Z" fill="#FFB08D"/>
<path id="Vector_10" d="M96.5747 43.365C94.6945 41.963 92.4268 41.1766 90.0823 41.1133C88.492 41.05 86.3424 40.9625 85.6615 42.1929C85.5065 42.4595 85.4248 42.7624 85.4248 43.0707C85.4248 43.3791 85.5065 43.682 85.6615 43.9486C86.391 44.9601 88.278 44.0896 91.3029 44.1139C95.2908 44.1479 97.8538 45.6993 98.1115 45.1352C98.3158 44.7218 97.0708 43.7492 96.5747 43.365Z" fill="#383333"/>
<path id="Vector_11" d="M50.7335 45.1644C52.4404 43.556 54.6028 42.5147 56.9245 42.1832C58.4953 41.94 60.6157 41.6045 61.4376 42.7473C61.6211 42.9954 61.7354 43.2878 61.7687 43.5946C61.802 43.9014 61.7532 44.2115 61.6273 44.4933C61.0194 45.5826 59.0449 44.9358 56.0394 45.3054C52.0855 45.7917 49.7171 47.6349 49.3816 47.1C49.1433 46.6963 50.2813 45.6021 50.7335 45.1644Z" fill="#383333"/>
<path id="Vector_12" d="M75.7114 59.6423C74.0287 59.6423 71.8208 59.4478 71.4074 58.4557C70.887 57.1378 73.3235 51.6471 73.8147 50.5383C73.8342 50.4939 73.8623 50.4539 73.8974 50.4205C73.9325 50.3872 73.9739 50.3611 74.0192 50.3439C74.0644 50.3267 74.1127 50.3187 74.1611 50.3203C74.2095 50.322 74.2571 50.3333 74.3011 50.3535C74.3897 50.3938 74.4589 50.4675 74.4935 50.5586C74.5281 50.6497 74.5254 50.7508 74.4859 50.8398C73.309 53.4368 71.7916 57.4344 72.0883 58.1882C72.3266 58.7815 74.943 59.015 77.2434 58.8642C77.2913 58.8609 77.3394 58.8671 77.3849 58.8825C77.4304 58.8978 77.4725 58.922 77.5086 58.9536C77.5448 58.9852 77.5743 59.0237 77.5955 59.0668C77.6168 59.1099 77.6293 59.1567 77.6324 59.2047C77.6378 59.3011 77.6052 59.3959 77.5415 59.4686C77.4779 59.5413 77.3883 59.5862 77.292 59.5937C76.9175 59.6132 76.3679 59.6423 75.7114 59.6423Z" fill="black"/>
<path id="Vector_13" d="M74.3011 72.2091C73.5641 72.2083 72.8309 72.1052 72.1223 71.9027C72.0578 71.8833 72.0037 71.8392 71.9717 71.7799C71.9398 71.7206 71.9328 71.6511 71.9521 71.5866C71.9715 71.5221 72.0156 71.4679 72.0749 71.436C72.1342 71.4041 72.2037 71.397 72.2682 71.4164C72.2925 71.4164 74.7631 72.1896 76.6452 71.1732C76.7019 71.1422 76.7686 71.1351 76.8307 71.1533C76.8614 71.1624 76.89 71.1774 76.9149 71.1975C76.9398 71.2176 76.9605 71.2424 76.9759 71.2705C76.9912 71.2986 77.0008 71.3294 77.0043 71.3612C77.0077 71.3931 77.0048 71.4253 76.9957 71.456C76.9867 71.4867 76.9717 71.5153 76.9516 71.5402C76.9315 71.5651 76.9067 71.5858 76.8786 71.6012C76.0827 72.0133 75.1972 72.2222 74.3011 72.2091Z" fill="black"/>
<path id="Vector_14" d="M93.0833 66.1932C95.5221 66.1932 97.4992 64.9608 97.4992 63.4406C97.4992 61.9204 95.5221 60.688 93.0833 60.688C90.6445 60.688 88.6675 61.9204 88.6675 63.4406C88.6675 64.9608 90.6445 66.1932 93.0833 66.1932Z" fill="#FF8C5F"/>
<path id="Vector_15" d="M53.097 66.1932C55.5358 66.1932 57.5129 64.9608 57.5129 63.4406C57.5129 61.9204 55.5358 60.688 53.097 60.688C50.6582 60.688 48.6812 61.9204 48.6812 63.4406C48.6812 64.9608 50.6582 66.1932 53.097 66.1932Z" fill="#FF8C5F"/>
<path id="Vector_16" d="M61.2432 51.0198C61.467 51.1073 58.1794 48.1796 54.8188 49.9547C51.4583 51.7298 53.0778 54.2928 50.4419 55.3043C50.4419 55.3043 53.0681 56.277 54.2061 54.3706C55.3441 52.4642 56.2584 49.128 61.2432 51.0198Z" fill="#383333"/>
<path id="Vector_17" d="M58.048 59.4332C60.7822 59.4332 62.9988 57.2167 62.9988 54.4824C62.9988 51.7481 60.7822 49.5316 58.048 49.5316C55.3137 49.5316 53.0972 51.7481 53.0972 54.4824C53.0972 57.2167 55.3137 59.4332 58.048 59.4332Z" fill="white"/>
<path id="Vector_18" d="M58.6122 57.8527C60.5676 57.8527 62.1527 56.2676 62.1527 54.3122C62.1527 52.3569 60.5676 50.7717 58.6122 50.7717C56.6569 50.7717 55.0718 52.3569 55.0718 54.3122C55.0718 56.2676 56.6569 57.8527 58.6122 57.8527Z" fill="#383333"/>
<path id="Vector_19" d="M59.5359 53.4368C60.1053 53.4368 60.5669 52.9752 60.5669 52.4058C60.5669 51.8364 60.1053 51.3748 59.5359 51.3748C58.9665 51.3748 58.5049 51.8364 58.5049 52.4058C58.5049 52.9752 58.9665 53.4368 59.5359 53.4368Z" fill="white"/>
<path id="Vector_20" d="M86.741 50.441C86.527 50.5529 89.4547 47.2653 93.0001 48.6465C96.5454 50.0276 95.2274 52.7559 97.9655 53.4611C97.9655 53.4611 95.4706 54.7207 94.1186 52.9748C92.7666 51.2289 91.473 47.9753 86.741 50.441Z" fill="#383333"/>
<path id="Vector_21" d="M90.3112 58.4654C93.0454 58.4654 95.262 56.2489 95.262 53.5146C95.262 50.7804 93.0454 48.5638 90.3112 48.5638C87.5769 48.5638 85.3604 50.7804 85.3604 53.5146C85.3604 56.2489 87.5769 58.4654 90.3112 58.4654Z" fill="white"/>
<path id="Vector_22" d="M89.7275 56.953C91.6828 56.953 93.2679 55.3679 93.2679 53.4125C93.2679 51.4572 91.6828 49.872 89.7275 49.872C87.7721 49.872 86.187 51.4572 86.187 53.4125C86.187 55.3679 87.7721 56.953 89.7275 56.953Z" fill="#383333"/>
<path id="Vector_23" d="M88.594 52.649C89.1634 52.649 89.625 52.1874 89.625 51.618C89.625 51.0485 89.1634 50.5869 88.594 50.5869C88.0246 50.5869 87.563 51.0485 87.563 51.618C87.563 52.1874 88.0246 52.649 88.594 52.649Z" fill="white"/>
<path id="Vector_24" d="M53.0873 97.075C53.0873 97.075 38.5801 100.922 31.6305 106.855C24.6809 112.788 23.6353 167.398 23.6353 167.398H41.6926L53.0873 97.075Z" fill="#00BAAC"/>
<path id="Vector_25" d="M92.5285 98.8598L101.36 103.461C101.36 103.461 93.6081 121.683 94.6537 133.024C95.6994 144.366 103.758 152.04 103.758 152.04C102.716 156.218 102.387 160.542 102.785 164.83C103.758 174.45 108.023 179.717 107.045 189.842C106.897 191.401 106.633 192.947 106.258 194.467C97.4368 198.001 88.2043 200.405 78.78 201.621C62.981 203.609 46.9408 202.273 31.6888 197.696C30.7045 195.46 30.0839 193.081 29.8505 190.649C29.2766 184.279 31.7277 179.95 33.2548 175.209C34.6068 171.011 35.808 164.718 34.6409 156.076C32.7644 153.458 31.4558 150.476 30.7989 147.322C28.7125 137.017 34.6895 128.764 35.9102 127.13L43.6574 100.285C44.4193 99.9606 45.2055 99.6364 46.0161 99.3121C48.7297 98.2425 51.5032 97.3316 54.3225 96.5838C55.5 100.737 58.0338 104.377 61.5202 106.923C68.2461 111.704 75.7648 110.06 77.7441 109.627C86.9454 107.575 91.6093 100.353 92.5285 98.8598Z" fill="#00CCC1"/>
<path id="Vector_26" d="M80.8857 11.7099C71.0813 13.6795 66.218 17.7355 63.6113 21.1349C59.3657 26.6304 60.9073 30.4773 55.4118 36.4883C51.1078 41.1911 45.8798 43.5157 42.85 44.8629C39.2138 46.4753 35.3835 47.6082 31.4553 48.2331C30.3124 43.1169 28.8243 32.7387 33.4006 21.5677C34.8158 18.1051 38.2931 10.3822 46.3515 5.21253C61.0727 -4.1882 78.5562 3.22831 80.3945 4.03561C82.4322 2.86356 87.7527 0.188754 93.1217 1.91522C94.7078 2.47852 96.2073 3.26099 97.5765 4.23987C100.105 6.09425 102.393 8.25733 104.385 10.6789C114.977 23.693 115.532 39.912 115.24 47.5474C111.133 47.0102 107.144 45.7923 103.437 43.9437C86.1137 35.2627 81.6687 15.5275 80.8857 11.7099Z" fill="#383333"/>
<path id="Vector_27" d="M81.1147 64.3938C78.8955 65.6089 76.4296 66.305 73.9025 66.4296C71.3754 66.5543 68.853 66.1043 66.5249 65.1136C68.3924 68.941 72.4776 70.8231 75.9451 69.8261C79.7384 68.7318 81.0223 64.6905 81.1147 64.3938Z" fill="white"/>
<path id="Vector_28" d="M97.4991 101.559C97.4991 101.559 111.034 105.936 113.062 119.709C115.09 133.482 107.483 151.806 97.4991 164.718L78.79 152.765C78.79 152.765 78.863 121.105 97.4991 101.559Z" fill="#00CCC1"/>
<path id="Vector_29" d="M73.5569 137.679L35.6233 140.426L10.7768 131.599L5.78711 76.3623C15.8588 77.1536 25.6307 80.1629 34.4027 85.1746C46.2205 81.0941 58.8716 80.0358 71.2031 82.0961C71.9877 100.625 72.7723 119.153 73.5569 137.679Z" fill="#FFF3E3"/>
<path id="Vector_30" d="M70.1524 141.428C58.3279 140.508 46.4328 141.278 34.8255 143.714C27.0923 139.398 18.6879 136.414 9.9644 134.887L4.98926 79.6645C14.9016 81.2118 24.5392 84.1798 33.6048 88.4768C44.7493 86.0851 56.1435 85.0595 67.5359 85.4226C68.4113 104.094 69.2835 122.763 70.1524 141.428Z" fill="#FF535C"/>
<path id="Vector_31" d="M57.5521 127.913C57.5521 127.913 53.2578 121.187 51.3952 118.255C49.5325 115.322 49.8924 109.452 47.6067 109.379C45.3209 109.306 45.8851 115.035 45.8851 115.035C45.8851 115.035 40.375 105.542 38.3713 105.377C36.3676 105.211 38.3713 110.099 38.3713 110.099C38.3713 110.099 33.936 105.017 32.4332 105.722C30.9305 106.427 34.2959 111.013 34.2959 111.013C34.2959 111.013 30.8575 108.368 29.9189 109.369C28.9803 110.371 33.2114 115.166 33.2114 115.166C33.2114 115.166 29.9919 113.221 29.1311 114.194C28.2703 115.166 32.798 119.597 34.6849 123.103C36.5719 126.61 38.9354 128.453 41.727 129.547C44.5185 130.641 48.2486 136.667 48.2486 136.667C48.2486 136.667 57.1241 133.574 57.5521 127.913Z" fill="#FFB08D"/>
<path id="Vector_32" d="M55.0327 121.756C61.7017 128.736 68.8943 135.195 76.5479 141.078C86.1188 148.417 93.1706 152.312 95.4223 160.852C95.7919 162.253 97.3676 168.317 94.2356 171.634C91.624 174.372 87.0671 173.871 85.1364 173.657C70.3229 172.013 47.4217 138.748 43.7256 133.316C46.3541 128.492 50.268 124.491 55.0327 121.756Z" fill="#00CCC1"/>
<path id="Vector_33" d="M0.870443 131.439C0.870443 131.439 -1.07487 118.094 0.870443 110.897C2.81576 103.699 7.50396 94.9352 9.50763 94.2349C11.5113 93.5346 9.50763 98.8599 9.50763 98.8599C9.50763 98.8599 11.2535 96.0684 12.7368 96.5887C14.2202 97.1091 11.5162 102.697 11.5162 102.697C11.5162 102.697 13.7825 99.9055 14.8329 100.688C15.8834 101.471 13.1745 106.622 13.1745 106.622C13.1745 106.622 14.7454 104.876 15.7035 105.576C16.6615 106.276 14.0451 112.385 14.4828 114.559C15.2901 118.61 15.4554 119.796 14.4828 123.021C14.0084 124.636 13.2054 126.136 12.1241 127.427C8.27722 131.882 1.86255 131.512 0.870443 131.439Z" fill="#FFB08D"/>
<path id="Vector_34" d="M13.8895 124.942C18.8987 134.97 23.1687 142.907 26.0915 148.203C32.7396 160.273 36.4941 166.163 35.1956 173.978C34.9573 175.408 33.9263 181.594 29.6855 183.325C26.179 184.755 22.2252 182.421 20.562 181.438C7.72775 173.861 1.04561 133.778 0 127.257L13.8895 124.942Z" fill="#00CCC1"/>
<path id="Vector_35" d="M34.2373 44.5711C34.2373 44.5711 34.8695 60.9603 42.3055 66.1932C42.3055 66.1932 38.2252 51.0441 40.3213 41.0841L34.2373 44.5711Z" fill="#383333"/>
<path id="Vector_36" d="M81.2604 172.344C80.8085 172.343 80.357 172.316 79.9084 172.261C75.1569 171.688 68.5623 166.353 60.3191 156.417C54.2011 149.044 49.401 141.739 49.3572 141.666C49.3392 141.64 49.3266 141.61 49.3202 141.579C49.3138 141.548 49.3138 141.516 49.3202 141.484C49.3265 141.453 49.3391 141.423 49.3572 141.397C49.3752 141.371 49.3984 141.348 49.4253 141.331C49.4789 141.296 49.5443 141.283 49.6071 141.296C49.67 141.309 49.7252 141.346 49.7609 141.399C49.8095 141.472 54.595 148.757 60.6984 156.11C68.7423 165.808 75.405 171.226 79.9667 171.78C90.9918 173.117 102.591 156.801 102.707 156.636C102.725 156.607 102.748 156.582 102.775 156.562C102.802 156.542 102.834 156.529 102.867 156.522C102.9 156.515 102.934 156.515 102.967 156.522C103 156.529 103.031 156.542 103.058 156.562C103.086 156.582 103.109 156.607 103.126 156.636C103.143 156.665 103.154 156.697 103.158 156.73C103.162 156.764 103.159 156.798 103.149 156.83C103.14 156.862 103.123 156.892 103.101 156.918C100.935 159.869 98.4925 162.606 95.8064 165.093C92.1444 168.483 86.7413 172.344 81.2604 172.344Z" fill="black"/>
<path id="Vector_37" d="M88.735 154.603C88.6894 154.603 88.6448 154.59 88.6061 154.566C88.5674 154.542 88.5362 154.508 88.5162 154.467C82.8116 143.125 72.3506 138.034 72.2485 137.985C72.2174 137.973 72.1892 137.954 72.1656 137.931C72.1419 137.907 72.1234 137.879 72.1112 137.848C72.0989 137.817 72.0932 137.783 72.0944 137.75C72.0956 137.717 72.1036 137.684 72.118 137.654C72.1324 137.624 72.1528 137.597 72.1781 137.575C72.2033 137.553 72.2328 137.537 72.2646 137.527C72.2965 137.517 72.3301 137.513 72.3633 137.517C72.3965 137.52 72.4286 137.531 72.4576 137.547C72.5646 137.596 83.1568 142.761 88.9539 154.248C88.9826 154.307 88.9869 154.374 88.966 154.436C88.945 154.498 88.9005 154.549 88.842 154.578C88.8085 154.594 88.772 154.602 88.735 154.603Z" fill="black"/>
<path id="Vector_38" d="M80.6573 143.962C80.6166 143.962 80.5767 143.952 80.5406 143.933C80.4847 143.901 80.4433 143.849 80.4251 143.787C80.407 143.725 80.4135 143.659 80.4433 143.602L91.5073 123.429C91.5226 123.401 91.5433 123.376 91.5682 123.356C91.5932 123.336 91.6218 123.321 91.6525 123.312C91.6832 123.303 91.7154 123.3 91.7472 123.304C91.779 123.307 91.8099 123.317 91.838 123.332C91.8661 123.347 91.8909 123.368 91.911 123.393C91.9311 123.418 91.9461 123.446 91.9551 123.477C91.9642 123.508 91.967 123.54 91.9636 123.572C91.9602 123.604 91.9506 123.635 91.9353 123.663L80.8908 143.831C80.8695 143.873 80.8359 143.909 80.7942 143.932C80.7526 143.956 80.7049 143.966 80.6573 143.962Z" fill="black"/>
<path id="Vector_39" d="M29.685 183.568C29.645 183.568 29.6056 183.558 29.5707 183.539C29.5358 183.519 29.5065 183.491 29.4857 183.457C29.4676 183.43 29.455 183.401 29.4486 183.369C29.4423 183.338 29.4423 183.306 29.4486 183.274C29.455 183.243 29.4675 183.213 29.4856 183.187C29.5037 183.161 29.5268 183.138 29.5537 183.121C35.876 178.958 34.7137 166.883 34.6991 166.761C34.6957 166.729 34.6987 166.697 34.708 166.666C34.7172 166.635 34.7324 166.606 34.7527 166.582C34.7731 166.557 34.7982 166.536 34.8265 166.521C34.8549 166.506 34.8859 166.497 34.9179 166.493C34.9493 166.49 34.9809 166.493 35.0111 166.502C35.0413 166.511 35.0695 166.526 35.0939 166.546C35.1183 166.566 35.1385 166.59 35.1534 166.618C35.1683 166.646 35.1775 166.676 35.1806 166.707C35.3583 168.956 35.2964 171.217 34.9958 173.453C34.3295 178.248 32.5398 181.72 29.8212 183.53C29.78 183.554 29.733 183.568 29.685 183.568Z" fill="black"/>
<g id="Group">
<path id="Vector_40" d="M108.631 38.2245C103.768 37.7381 98.5882 33.6287 93.1899 25.9641C90.6679 22.3567 88.4337 18.5565 86.5078 14.5987C86.4944 14.5696 86.4868 14.5382 86.4855 14.5062C86.4843 14.4742 86.4893 14.4423 86.5004 14.4123C86.5114 14.3822 86.5283 14.3547 86.55 14.3312C86.5717 14.3077 86.5979 14.2887 86.6269 14.2752C86.656 14.2618 86.6874 14.2543 86.7194 14.253C86.7514 14.2517 86.7833 14.2568 86.8133 14.2678C86.8433 14.2789 86.8709 14.2958 86.8944 14.3175C86.9179 14.3392 86.9369 14.3653 86.9503 14.3944C87.0525 14.6181 97.4161 36.6342 108.655 37.7381C108.718 37.7455 108.776 37.7769 108.817 37.8257C108.858 37.8746 108.878 37.9373 108.874 38.0008C108.867 38.061 108.839 38.1168 108.794 38.1578C108.749 38.1989 108.691 38.2225 108.631 38.2245Z" fill="white"/>
<path id="Vector_41" d="M111.714 31.2359C101.657 31.2359 95.116 18.927 95.0479 18.8005C95.0187 18.7437 95.013 18.6776 95.0321 18.6167C95.0512 18.5557 95.0936 18.5047 95.15 18.4747C95.2076 18.4453 95.2743 18.4395 95.3361 18.4585C95.3979 18.4776 95.4498 18.52 95.4807 18.5768C95.5439 18.6984 101.954 30.735 111.714 30.735H112.021C112.085 30.735 112.147 30.7606 112.193 30.8062C112.238 30.8518 112.264 30.9137 112.264 30.9782C112.264 31.0427 112.238 31.1045 112.193 31.1501C112.147 31.1957 112.085 31.2213 112.021 31.2213L111.714 31.2359Z" fill="white"/>
<path id="Vector_42" d="M35.7015 39.8877C35.6407 39.8892 35.5817 39.8673 35.5365 39.8266C35.4912 39.7859 35.4633 39.7295 35.4584 39.6689C35.455 39.6369 35.458 39.6046 35.4672 39.5738C35.4764 39.543 35.4916 39.5144 35.512 39.4895C35.5323 39.4646 35.5574 39.444 35.5858 39.4289C35.6141 39.4138 35.6452 39.4044 35.6772 39.4014C42.7922 38.7351 50.0044 31.4305 52.8738 24.758C56.7644 15.7318 66.3548 12.7409 66.4521 12.7117C66.514 12.6933 66.5806 12.6998 66.6378 12.7297C66.6951 12.7597 66.7383 12.8108 66.7584 12.8722C66.7765 12.9341 66.7692 13.0006 66.7382 13.0572C66.7072 13.1137 66.655 13.1557 66.5931 13.1737C66.5007 13.2029 57.1048 16.1354 53.3212 24.9477C49.4549 33.9399 41.3721 39.3576 35.721 39.8877H35.7015Z" fill="white"/>
<path id="Vector_43" d="M39.6745 29.2712H39.6161C39.5533 29.2551 39.4993 29.215 39.4657 29.1595C39.432 29.1041 39.4214 29.0377 39.4362 28.9745C41.897 18.6546 50.2035 12.026 50.291 11.953C50.3152 11.928 50.3444 11.9084 50.3768 11.8956C50.4092 11.8828 50.4439 11.8771 50.4787 11.8789C50.5134 11.8807 50.5474 11.89 50.5783 11.906C50.6091 11.9221 50.6362 11.9446 50.6577 11.972C50.6791 11.9994 50.6944 12.0311 50.7025 12.0649C50.7107 12.0988 50.7114 12.134 50.7048 12.1681C50.6982 12.2023 50.6843 12.2346 50.6641 12.263C50.6439 12.2913 50.6178 12.315 50.5877 12.3324C50.505 12.4005 42.3201 18.927 39.8885 29.0815C39.8774 29.1317 39.8507 29.177 39.8123 29.2111C39.7739 29.2452 39.7256 29.2662 39.6745 29.2712Z" fill="white"/>
</g>
<path id="Vector_44" d="M6.64801 104.822C6.63046 104.827 6.61206 104.827 6.59451 104.822C6.58019 104.816 6.56738 104.806 6.55686 104.794C6.54634 104.782 6.53834 104.769 6.53333 104.754C6.52833 104.738 6.52643 104.723 6.52775 104.707C6.52907 104.691 6.53359 104.676 6.54102 104.662L9.40062 98.8258C9.40688 98.8111 9.41611 98.7978 9.42773 98.7868C9.43935 98.7758 9.45312 98.7672 9.46817 98.7618C9.48323 98.7563 9.49925 98.754 9.51524 98.755C9.53123 98.7559 9.54684 98.7602 9.56111 98.7675C9.57602 98.7743 9.58941 98.784 9.60048 98.796C9.61155 98.8081 9.62006 98.8223 9.62551 98.8377C9.63096 98.8532 9.63323 98.8696 9.6322 98.8859C9.63116 98.9022 9.62683 98.9182 9.61947 98.9328L6.755 104.769C6.74365 104.787 6.72771 104.801 6.70888 104.81C6.69004 104.82 6.66901 104.824 6.64801 104.822Z" fill="black"/>
<path id="Vector_45" d="M9.50764 106.656H9.45415C9.42614 106.641 9.4049 106.616 9.39491 106.586C9.38493 106.556 9.38698 106.524 9.40065 106.495L11.4092 102.653C11.4247 102.625 11.4508 102.604 11.4818 102.595C11.5128 102.586 11.5462 102.589 11.5745 102.605C11.6029 102.62 11.624 102.646 11.6331 102.677C11.6422 102.708 11.6386 102.742 11.6232 102.77L9.6195 106.607C9.60592 106.623 9.58873 106.636 9.56932 106.645C9.5499 106.653 9.52878 106.657 9.50764 106.656Z" fill="black"/>
<path id="Vector_46" d="M11.5162 110.931C11.502 110.935 11.4867 110.935 11.4724 110.931C11.4574 110.925 11.4437 110.917 11.4321 110.906C11.4205 110.895 11.4112 110.882 11.4048 110.867C11.3984 110.853 11.3951 110.837 11.395 110.821C11.3949 110.805 11.3981 110.79 11.4043 110.775L13.0627 106.588C13.0727 106.559 13.0935 106.535 13.1208 106.521C13.1481 106.508 13.1796 106.505 13.2086 106.515C13.238 106.527 13.2616 106.55 13.2743 106.579C13.2871 106.608 13.2879 106.641 13.2767 106.67L11.6183 110.858C11.6095 110.878 11.5954 110.895 11.5774 110.908C11.5594 110.921 11.5383 110.929 11.5162 110.931Z" fill="black"/>
<path id="Vector_47" d="M35.4482 117.428C35.4181 117.428 35.3889 117.418 35.3655 117.399L33.1478 115.269C33.1337 115.258 33.1218 115.245 33.1131 115.23C33.1044 115.215 33.099 115.199 33.0973 115.181C33.0956 115.164 33.0976 115.147 33.1032 115.13C33.1088 115.114 33.1179 115.099 33.1299 115.086C33.1418 115.073 33.1563 115.063 33.1724 115.057C33.1885 115.05 33.2059 115.047 33.2232 115.048C33.2406 115.049 33.2576 115.053 33.2732 115.061C33.2887 115.069 33.3023 115.08 33.3132 115.093L35.5454 117.219C35.568 117.242 35.5806 117.274 35.5806 117.306C35.5806 117.339 35.568 117.37 35.5454 117.394C35.5329 117.407 35.5176 117.416 35.5008 117.422C35.4839 117.428 35.4659 117.43 35.4482 117.428Z" fill="black"/>
<path id="Vector_48" d="M37.5735 114.16C37.5581 114.16 37.5428 114.157 37.5286 114.151C37.5144 114.145 37.5015 114.137 37.4908 114.126L34.213 111.12C34.1907 111.097 34.1782 111.067 34.1782 111.035C34.1782 111.003 34.1907 110.973 34.213 110.95C34.2243 110.938 34.2379 110.929 34.253 110.922C34.268 110.916 34.2842 110.913 34.3005 110.913C34.3169 110.913 34.333 110.916 34.3481 110.922C34.3631 110.929 34.3767 110.938 34.3881 110.95L37.6659 113.955C37.6777 113.967 37.687 113.98 37.6934 113.995C37.6998 114.01 37.7031 114.027 37.7031 114.043C37.7031 114.059 37.6998 114.076 37.6934 114.091C37.687 114.106 37.6777 114.119 37.6659 114.131C37.6533 114.141 37.6386 114.15 37.6227 114.155C37.6068 114.16 37.5901 114.161 37.5735 114.16Z" fill="black"/>
<path id="Vector_49" d="M40.443 112.657C40.4254 112.657 40.4079 112.653 40.392 112.645C40.376 112.638 40.3619 112.627 40.3506 112.613L38.2691 110.182C38.2468 110.159 38.2344 110.128 38.2344 110.096C38.2344 110.065 38.2468 110.034 38.2691 110.011C38.28 110 38.2932 109.99 38.3079 109.984C38.3225 109.978 38.3383 109.975 38.3542 109.975C38.3702 109.975 38.386 109.978 38.4006 109.984C38.4152 109.99 38.4284 110 38.4393 110.011L40.5208 112.443C40.5371 112.461 40.5479 112.483 40.5517 112.506C40.5556 112.53 40.5524 112.554 40.5425 112.576C40.5326 112.598 40.5165 112.616 40.4962 112.629C40.4759 112.642 40.4524 112.648 40.4284 112.647L40.443 112.657Z" fill="black"/>
</g>
</g>
</svg>
