<svg width="101" height="213" viewBox="0 0 101 213" fill="none" xmlns="http://www.w3.org/2000/svg">
<g id="teacher">
<g id="Teacher">
<path id="Vector" d="M10.2349 55.055C10.2349 55.055 15.3464 66.1798 13.7517 74.6231C12.157 83.0664 0.680985 100.594 18.6877 110.152C36.6943 119.711 59.1101 110.95 63.1158 105.373C67.1216 99.7964 50.178 62.4969 50.178 62.4969L10.2349 55.055Z" fill="#383333"/>
<path id="Vector_2" d="M42.5986 91.8277C37.9843 92.0869 33.4185 92.9044 29.001 94.2625C24.3878 95.6863 17.2971 97.86 12.271 102.986C7.63409 107.732 6.45705 113.209 4.74371 124.258C3.22496 134.044 1.57332 146.379 0.253906 160.803C2.6575 161.432 5.09879 161.908 7.56289 162.227C12.9687 162.921 18.444 162.875 23.8372 162.089C30.0894 138.669 36.3432 115.248 42.5986 91.8277Z" fill="#FF832F"/>
<path id="Vector_3" d="M57.6819 98.4438C64.5115 91.6853 84.0607 93.9682 92.0484 104.315C93.5576 106.275 94.5686 111.258 96.5192 121.149C101.265 145.074 101.265 153.347 96.4006 158.79C96.0278 159.214 95.6283 159.614 95.2045 159.986C94.3455 160.181 93.4627 160.352 92.5467 160.504C87.154 161.37 81.6538 161.322 76.2771 160.361C74.6872 157.908 44.8627 111.14 57.6819 98.4438Z" fill="#FF832F"/>
<path id="Vector_4" d="M82.0816 48.2539C82.4755 47.8695 84.6255 45.8524 87.7009 46.0754C88.1471 46.1087 89.9411 46.2415 91.1466 47.3711C94.2743 50.2995 93.0783 59.5448 87.6725 61.9179C84.6492 63.2468 81.4361 61.9179 80.354 61.4433C80.9425 57.0421 81.5184 52.6456 82.0816 48.2539Z" fill="#FFC871"/>
<path id="Vector_5" d="M85.5079 59.0275C85.484 59.0285 85.4602 59.0244 85.4381 59.0154C85.416 59.0064 85.3961 58.9927 85.3797 58.9753C85.347 58.9416 85.3286 58.8965 85.3286 58.8495C85.3286 58.8026 85.347 58.7574 85.3797 58.7238C86.6374 57.5088 87.2117 56.2606 87.0788 55.0218C86.851 52.8718 84.5681 51.4195 84.5444 51.4053C84.5106 51.3848 84.4848 51.3535 84.471 51.3164C84.4572 51.2794 84.4563 51.2388 84.4685 51.2012C84.4819 51.1653 84.5058 51.1343 84.5372 51.1123C84.5685 51.0903 84.6058 51.0783 84.6441 51.0778L89.8648 51.3199C89.8878 51.3211 89.9105 51.3268 89.9313 51.3368C89.9521 51.3468 89.9708 51.3608 89.9862 51.3779C90.0017 51.3951 90.0136 51.4152 90.0212 51.437C90.0289 51.4588 90.0322 51.4819 90.0309 51.505C90.031 51.5287 90.0261 51.5521 90.0167 51.5738C90.0072 51.5955 89.9933 51.615 89.9759 51.6311C89.9585 51.6472 89.938 51.6595 89.9156 51.6671C89.8932 51.6748 89.8694 51.6778 89.8458 51.6758L85.2278 51.4623C85.9587 52.0413 87.2544 53.2895 87.4348 54.9839C87.5772 56.3365 86.9602 57.6844 85.6265 58.9801C85.5943 59.0102 85.552 59.0272 85.5079 59.0275Z" fill="#383333"/>
<path id="Vector_6" d="M18.1848 48.2539C17.7909 47.8695 15.6409 45.8524 12.5654 46.0754C12.1193 46.1087 10.3253 46.2415 9.11979 47.3711C5.99211 50.2995 7.18812 59.5448 12.5939 61.9179C15.6172 63.2468 18.8303 61.9179 19.9124 61.4433C19.346 57.0421 18.7702 52.6456 18.1848 48.2539Z" fill="#FFC871"/>
<path id="Vector_7" d="M14.7531 59.0275C14.7074 59.0283 14.6631 59.0113 14.6297 58.98C13.2866 57.6844 12.6791 56.3365 12.8215 54.9838C13.0018 53.2895 14.2975 52.0412 15.0284 51.4622L10.4105 51.6758C10.3869 51.6778 10.3631 51.6748 10.3407 51.6671C10.3183 51.6594 10.2977 51.6471 10.2803 51.6311C10.2629 51.615 10.2491 51.5955 10.2396 51.5738C10.2301 51.5521 10.2253 51.5286 10.2254 51.5049C10.2241 51.4819 10.2274 51.4588 10.235 51.437C10.2427 51.4152 10.2546 51.3951 10.27 51.3779C10.2854 51.3607 10.3041 51.3467 10.325 51.3368C10.3458 51.3268 10.3684 51.3211 10.3915 51.3198L15.6122 51.0778C15.6508 51.0768 15.6887 51.0883 15.7203 51.1105C15.752 51.1327 15.7756 51.1645 15.7878 51.2012C15.7999 51.2388 15.799 51.2794 15.7853 51.3164C15.7715 51.3534 15.7456 51.3848 15.7119 51.4053C15.6881 51.4053 13.4053 52.8718 13.1774 55.0218C13.0445 56.2605 13.6188 57.5087 14.8765 58.7237C14.9093 58.7574 14.9276 58.8025 14.9276 58.8495C14.9276 58.8965 14.9093 58.9416 14.8765 58.9753C14.8607 58.9921 14.8416 59.0054 14.8203 59.0144C14.7991 59.0234 14.7762 59.0278 14.7531 59.0275Z" fill="#383333"/>
<path id="Vector_8" d="M49.8983 79.4974C70.168 79.4974 86.5999 63.0656 86.5999 42.7959C86.5999 22.5262 70.168 6.09433 49.8983 6.09433C29.6286 6.09433 13.1968 22.5262 13.1968 42.7959C13.1968 63.0656 29.6286 79.4974 49.8983 79.4974Z" fill="#FFDB99"/>
<path id="Vector_9" d="M86.6045 46.3033C83.7568 64.7181 73.1398 79.3646 58.669 83.6883C53.0274 85.39 47.0226 85.482 41.3315 83.954C27.0553 79.9958 16.3671 65.4965 13.752 47.0009C15.6504 26.7541 33.1682 11.7897 52.276 12.8291C69.7274 13.8447 84.6111 27.9311 86.6045 46.3033Z" fill="#FFDB99"/>
<path id="Vector_10" d="M58.9294 76.365C58.3456 79.412 57.3157 86.8491 61.6015 90.869C62.9256 92.1078 64.3305 92.6251 67.6575 93.7167C78.1843 97.2288 80.3533 97.4851 81.8388 98.178C92.0097 102.924 84.1027 134.661 85.9821 168.605C86.5769 179.567 88.1655 190.451 90.7282 201.126C80.9218 206.25 70.2019 209.391 59.181 210.371C36.4851 212.345 19.0907 204.419 11.6963 200.49C13.1142 196.468 14.2871 192.365 15.2084 188.202C18.1273 175.055 17.7381 164.41 17.515 157.276C16.9312 138.904 7.62414 108.064 15.1847 101.5C22.7452 94.9364 35.2037 94.2815 38.7016 90.0147C42.1994 85.748 40.6 74.4808 40.6 74.4808C40.6 74.4808 53.8226 69.6065 58.9294 76.365Z" fill="#FFDB99"/>
<path id="Vector_11" d="M72.1096 46.4171C70.1643 44.8446 67.7807 43.9114 65.2848 43.7451C63.5952 43.6027 61.3076 43.4081 60.5387 44.6943C60.3637 44.9726 60.2658 45.2923 60.2549 45.6209C60.2441 45.9495 60.3207 46.275 60.477 46.5642C61.2031 47.6748 63.2582 46.8348 66.4855 46.9961C70.7333 47.2144 73.4006 48.9847 73.7138 48.3962C73.9227 47.9453 72.6222 46.849 72.1096 46.4171Z" fill="#383333"/>
<path id="Vector_12" d="M28.142 45.8808C30.2063 44.4637 32.6576 43.7179 35.1614 43.7451C36.8558 43.7451 39.1529 43.7451 39.8363 45.0692C39.9931 45.3644 40.0678 45.6963 40.0528 46.0301C40.0377 46.364 39.9335 46.6878 39.7509 46.9677C38.9346 48.0166 36.9555 47.0151 33.7234 46.9202C29.4519 46.7968 26.6754 48.3441 26.4096 47.7413C26.215 47.2619 27.6057 46.27 28.142 45.8808Z" fill="#383333"/>
<path id="Vector_13" d="M49.9456 57.3095C48.2797 57.3095 46.2152 57.1196 45.8402 56.2131C45.2707 54.8463 47.957 48.5482 48.2655 47.8363C48.2773 47.8071 48.295 47.7807 48.3174 47.7585C48.3397 47.7364 48.3664 47.719 48.3957 47.7075C48.425 47.6959 48.4563 47.6905 48.4878 47.6914C48.5192 47.6923 48.5502 47.6996 48.5787 47.7129C48.6075 47.7253 48.6335 47.7432 48.6552 47.7657C48.677 47.7881 48.6941 47.8147 48.7056 47.8438C48.7171 47.8729 48.7227 47.904 48.7221 47.9353C48.7215 47.9666 48.7147 47.9975 48.7021 48.0261C47.5678 50.646 45.9067 55.1453 46.2769 56.0328C46.6471 56.9203 49.9409 56.9203 51.9437 56.7542C52.0066 56.7485 52.0692 56.7681 52.1178 56.8086C52.1663 56.8491 52.1967 56.9072 52.2024 56.9701C52.208 57.0331 52.1885 57.0957 52.148 57.1442C52.1075 57.1927 52.0494 57.2231 51.9864 57.2288C51.6542 57.2525 50.8616 57.3095 49.9456 57.3095Z" fill="#383333"/>
<path id="Vector_14" d="M49.6033 71.7471C48.7034 71.7425 47.8103 71.5902 46.9597 71.2962C46.9379 71.2881 46.9179 71.2757 46.9009 71.2599C46.8838 71.2441 46.87 71.225 46.8604 71.2039C46.8507 71.1827 46.8452 71.1599 46.8444 71.1366C46.8435 71.1134 46.8472 71.0902 46.8553 71.0684C46.8634 71.0466 46.8758 71.0265 46.8916 71.0095C46.9074 70.9924 46.9265 70.9787 46.9476 70.969C46.9688 70.9593 46.9916 70.9538 47.0149 70.953C47.0381 70.9521 47.0613 70.9558 47.0831 70.964C47.1116 70.964 49.7362 71.9132 51.8292 70.9307C51.8706 70.9184 51.915 70.9212 51.9545 70.9389C51.9939 70.9565 52.0257 70.9877 52.0441 71.0267C52.0624 71.0658 52.0662 71.1102 52.0546 71.1518C52.0431 71.1934 52.017 71.2295 51.9811 71.2535C51.2349 71.5923 50.4227 71.7609 49.6033 71.7471Z" fill="#383333"/>
<path id="Vector_15" d="M31.1609 64.0487C33.7637 64.0045 35.8514 62.6533 35.8238 61.0308C35.7962 59.4083 33.6639 58.1288 31.061 58.1731C28.4582 58.2173 26.3705 59.5685 26.3981 61.191C26.4257 62.8136 28.5581 64.093 31.1609 64.0487Z" fill="#FFC871"/>
<path id="Vector_16" d="M66.4436 64.0566C69.0465 64.0123 71.1341 62.6611 71.1066 61.0386C71.079 59.4161 68.9466 58.1367 66.3437 58.1809C63.7409 58.2252 61.6532 59.5763 61.6808 61.1989C61.7084 62.8214 63.8408 64.1008 66.4436 64.0566Z" fill="#FFC871"/>
<path id="Vector_17" d="M48.8917 84.7514C46.1638 84.7507 43.4409 84.5189 40.7521 84.0584C40.6892 84.0477 40.6331 84.0125 40.5961 83.9604C40.5592 83.9083 40.5445 83.8437 40.5552 83.7808C40.5659 83.7179 40.6011 83.6617 40.6532 83.6248C40.7053 83.5879 40.7699 83.5731 40.8328 83.5838C46.7183 84.5959 52.7418 84.4897 58.5879 83.2706C58.6185 83.2636 58.6501 83.2627 58.681 83.268C58.7119 83.2733 58.7414 83.2846 58.7679 83.3014C58.7944 83.3182 58.8173 83.34 58.8353 83.3657C58.8533 83.3914 58.866 83.4203 58.8727 83.4509C58.8842 83.5131 58.8714 83.5772 58.8369 83.6302C58.8025 83.6832 58.7491 83.721 58.6876 83.7357C56.1947 84.2505 53.6651 84.5679 51.1223 84.6849C50.3867 84.7324 49.6368 84.7514 48.8917 84.7514Z" fill="#383333"/>
<path id="Vector_18" fill-rule="evenodd" clip-rule="evenodd" d="M66.2007 55.767C65.7954 56.2275 65.2626 56.5574 64.6697 56.7149C64.0768 56.8724 63.4505 56.8504 62.8702 56.6517C62.2898 56.4529 61.7814 56.0864 61.4095 55.5986C61.0376 55.1108 60.8188 54.5235 60.7808 53.9112C60.7429 53.2989 60.8875 52.6892 61.1964 52.1591C61.5053 51.6291 61.9645 51.2027 62.5159 50.9338C63.0673 50.665 63.6861 50.5658 64.2939 50.6489C64.9017 50.732 65.4712 50.9936 65.9302 51.4006C66.5426 51.9453 66.9147 52.71 66.9654 53.528C67.0161 54.3461 66.7412 55.1509 66.2007 55.767Z" fill="#383333"/>
<path id="Vector_19" fill-rule="evenodd" clip-rule="evenodd" d="M69.0105 51.6474C68.9441 51.5905 68.3366 52.6441 67.5582 52.5681C66.9839 52.5112 66.8321 51.88 66.1012 51.3247C65.4666 50.8649 64.7015 50.6204 63.918 50.627C64.2483 51.2832 64.6685 51.8902 65.1662 52.4305C65.8734 53.1994 66.329 53.693 66.9507 53.7025C68.2037 53.712 69.1007 51.7233 69.0105 51.6474Z" fill="#383333"/>
<path id="Vector_20" fill-rule="evenodd" clip-rule="evenodd" d="M37.0979 56.0375C36.6393 56.4428 36.0707 56.7031 35.4642 56.7853C34.8576 56.8675 34.2403 56.768 33.6903 56.4993C33.1403 56.2307 32.6823 55.8049 32.3744 55.2759C32.0664 54.7469 31.9222 54.1385 31.96 53.5276C31.9979 52.9166 32.2161 52.3306 32.587 51.8437C32.9579 51.3568 33.4649 50.9908 34.0439 50.7921C34.6228 50.5934 35.2477 50.5708 35.8395 50.7272C36.4313 50.8837 36.9634 51.2122 37.3685 51.6711C37.909 52.2871 38.1839 53.092 38.1332 53.91C38.0825 54.728 37.7104 55.4928 37.0979 56.0375Z" fill="#383333"/>
<path id="Vector_21" fill-rule="evenodd" clip-rule="evenodd" d="M29.9266 51.6474C29.9978 51.5904 30.6006 52.6441 31.3837 52.5681C31.958 52.5112 32.1051 51.8799 32.836 51.3246C33.4727 50.8657 34.239 50.6214 35.0239 50.627C34.6919 51.2821 34.2719 51.8889 33.7757 52.4305C33.0638 53.1993 32.6082 53.6929 31.9912 53.7024C30.7382 53.7119 29.8364 51.7233 29.9266 51.6474Z" fill="#383333"/>
<g id="Clip path group">
<mask id="mask0_1081_923" style="mask-type:luminance" maskUnits="userSpaceOnUse" x="8" y="88" width="85" height="125">
<g id="clip-path">
<path id="Vector_22" d="M46.2106 94.0821C45.7028 93.4556 41.7255 88.3299 38.5646 89.1225C37.6154 89.3598 35.6933 92.0413 27.3876 94.4666C19.0819 96.8918 10.7193 102.625 10.9566 110.632C11.1939 118.638 23.7711 166.489 8.80664 201.576C8.80664 201.576 47.6724 227.091 92.0531 201.126C84.1224 171.752 85.195 150.542 87.9193 136.208C88.3322 134.021 93.7475 105.857 84.9292 99.7585C83.4852 98.7664 81.9667 97.8873 80.3872 97.1291C71.9249 93.1519 65.4845 94.832 62.4233 90.5558C62.0056 89.9768 61.569 89.1699 60.5913 88.8045C58.5172 88.0309 55.8737 89.934 54.4546 90.9545C53.6029 91.5872 52.8088 92.2939 52.0815 93.0665C50.0217 95.1832 49.6468 96.4457 48.6738 96.4742C47.81 96.4931 47.3971 95.5487 46.2106 94.0821Z" fill="white"/>
</g>
</mask>
<g mask="url(#mask0_1081_923)">
<g id="Group">
<path id="Vector_23" d="M46.2106 94.0821C45.7028 93.4556 41.7255 88.3298 38.5646 89.1224C37.6154 89.3597 35.6933 92.0412 27.3876 94.4665C19.0819 96.8918 10.7193 102.625 10.9566 110.632C11.1939 118.638 23.7711 166.488 8.80664 201.576C8.80664 201.576 47.6724 227.091 92.0531 201.125C84.1224 171.752 85.195 150.542 87.9193 136.208C88.3322 134.02 93.7475 105.857 84.9292 99.7584C83.4852 98.7663 81.9667 97.8873 80.3872 97.1291C71.9249 93.1518 65.4845 94.832 62.4233 90.5557C62.0056 89.9767 61.569 89.1699 60.5913 88.8044C58.5172 88.0308 55.8737 89.934 54.4546 90.9544C53.6029 91.5871 52.8088 92.2938 52.0815 93.0664C50.0217 95.1832 49.6468 96.4456 48.6738 96.4741C47.81 96.4931 47.3971 95.5486 46.2106 94.0821Z" fill="#FF832F"/>
<path id="Vector_24" d="M34.3782 90.6744C34.3782 90.6744 31.8723 93.4224 35.2752 95.9948C38.6782 98.5672 38.2653 105.136 39.6369 105.852C41.0085 106.569 47.4632 96.5928 48.7779 97.4281C50.0925 98.2634 54.8149 106.526 56.6659 105.89C58.5168 105.254 58.5643 97.7271 60.9089 95.8761C62.3873 94.6763 63.7304 93.3188 64.9146 91.8277L60.9089 87.5562L49.2003 88.3868L38.2842 86.8965L34.3782 90.6744Z" fill="#FFB833"/>
</g>
</g>
</g>
<path id="Vector_25" d="M61.8484 137.552C52.8879 138.305 44.0086 139.826 35.3082 142.098C21.5161 145.705 1.01295 151.069 0.272557 160.447C-0.0786538 164.913 4.12164 169.436 8.17006 171.273C14.4349 174.12 20.638 170.665 36.3049 163.56C42.4463 160.779 51.5826 156.735 63.0302 152.046C63.183 149.365 63.1322 146.675 62.8783 144.002C62.6702 141.832 62.3262 139.678 61.8484 137.552Z" fill="#FF832F"/>
<path id="Vector_26" d="M10.4011 46.5595C10.857 46.503 11.318 46.6137 11.6985 46.8712C12.079 47.1287 12.3533 47.5154 12.4704 47.9596C12.8643 49.3075 13.6237 52.1884 15.4604 52.6203C15.926 52.7178 16.4099 52.6748 16.851 52.4969C20.2303 51.2249 18.2749 39.3502 21.711 29.1319C22.7884 25.9425 24.8767 21.4859 29.3617 16.7066C32.741 25.6577 37.5298 29.7726 40.5957 31.7612C48.2512 36.7351 58.816 37.3426 65.6883 37.7365C73.8943 38.2112 77.6058 37.2619 80.3538 40.2045C84.2551 44.3953 82.6366 52.6061 83.7757 52.6725C86.3338 52.8244 87.022 47.2952 87.8858 46.6402C88.7496 45.9853 90.7097 47.0199 90.7097 47.0199C94.2029 29.9862 86.6329 12.848 72.3708 4.77967C60.5056 -1.95029 45.5839 -1.5184 33.4244 5.72889C29.3445 5.84566 25.3651 7.02164 21.8771 9.14133C11.6588 15.4821 7.15002 30.3611 10.4011 46.5595Z" fill="#383333"/>
<path id="Vector_27" d="M81.8913 62.027C81.8913 62.027 72.2567 80.7172 58.455 83.5079C58.455 83.5079 57.8191 90.2805 63.3198 94.5995C68.8205 98.9184 63.1347 117.086 63.1347 117.086C63.1347 117.086 84.2501 122.858 92.0859 104.315C99.9217 85.7718 86.9316 72.6441 90.7285 59.374C90.7285 59.374 87.7812 63.5268 81.8913 62.027Z" fill="#383333"/>
<g id="Group_2">
<path id="Vector_28" d="M53.7088 51.0161H44.2593C44.0075 51.0161 43.7661 50.9161 43.5881 50.7381C43.4101 50.56 43.3101 50.3186 43.3101 50.0669C43.3101 49.8151 43.4101 49.5737 43.5881 49.3957C43.7661 49.2177 44.0075 49.1176 44.2593 49.1176H53.7088C53.9605 49.1176 54.2019 49.2177 54.38 49.3957C54.558 49.5737 54.658 49.8151 54.658 50.0669C54.658 50.3186 54.558 50.56 54.38 50.7381C54.2019 50.9161 53.9605 51.0161 53.7088 51.0161Z" fill="white"/>
<path id="Vector_29" d="M19.5372 51.0161H13.0303C12.7785 51.0161 12.5371 50.9161 12.3591 50.7381C12.1811 50.56 12.0811 50.3186 12.0811 50.0669C12.0811 49.8151 12.1811 49.5737 12.3591 49.3957C12.5371 49.2177 12.7785 49.1176 13.0303 49.1176H19.5372C19.7889 49.1176 20.0304 49.2177 20.2084 49.3957C20.3864 49.5737 20.4864 49.8151 20.4864 50.0669C20.4864 50.3186 20.3864 50.56 20.2084 50.7381C20.0304 50.9161 19.7889 51.0161 19.5372 51.0161Z" fill="white"/>
<path id="Vector_30" d="M84.924 51.0161H78.3887C78.1369 51.0161 77.8955 50.9161 77.7175 50.7381C77.5395 50.56 77.4395 50.3186 77.4395 50.0669C77.4395 49.8151 77.5395 49.5737 77.7175 49.3957C77.8955 49.2177 78.1369 49.1176 78.3887 49.1176H84.9098C85.1615 49.1176 85.403 49.2177 85.581 49.3957C85.759 49.5737 85.859 49.8151 85.859 50.0669C85.859 50.3186 85.759 50.56 85.581 50.7381C85.403 50.9161 85.1615 51.0161 84.9098 51.0161H84.924Z" fill="white"/>
<path id="Vector_31" d="M40.4199 65.0646C43.5523 65.2924 46.8794 65.4347 50.3867 65.4632C53.1869 65.4632 55.8732 65.4205 58.4551 65.3019C57.3754 66.5634 56.0455 67.5868 54.5496 68.3074C53.0537 69.028 51.4244 69.43 49.765 69.4879C44.1456 69.5923 40.8138 65.5392 40.4199 65.0646Z" fill="white"/>
<path id="Vector_32" d="M70.7947 32.0935C58.9295 32.0935 50.8612 27.2952 46.0581 23.0759C42.7463 20.215 39.9958 16.7628 37.947 12.8955C37.9213 12.8382 37.9194 12.7731 37.9417 12.7144C37.9639 12.6557 38.0085 12.6082 38.0657 12.5823C38.0937 12.5687 38.1241 12.561 38.1551 12.5594C38.1861 12.5578 38.2171 12.5625 38.2463 12.5731C38.2755 12.5837 38.3023 12.6001 38.3251 12.6212C38.3479 12.6424 38.3662 12.6678 38.3789 12.6962C38.4738 12.9003 48.265 33.1613 73.7089 31.5192C73.7712 31.5177 73.8318 31.5399 73.8785 31.5813C73.9251 31.6226 73.9544 31.6802 73.9604 31.7422C73.963 31.8049 73.9413 31.8661 73.8997 31.9131C73.858 31.96 73.7999 31.9889 73.7373 31.9938C72.7359 32.065 71.744 32.0935 70.7947 32.0935Z" fill="white"/>
<path id="Vector_33" d="M82.1521 28.2443C61.8958 28.2443 53.4288 13.0806 53.3386 12.9145C53.3084 12.8591 53.3014 12.794 53.3192 12.7334C53.337 12.6729 53.3782 12.6219 53.4335 12.5917C53.4889 12.5615 53.554 12.5545 53.6146 12.5723C53.6751 12.5902 53.7261 12.6313 53.7563 12.6867C53.8512 12.8623 63.5997 30.2804 87.2257 27.4612C87.2569 27.4573 87.2886 27.4595 87.3189 27.4679C87.3492 27.4763 87.3776 27.4906 87.4023 27.51C87.427 27.5295 87.4477 27.5536 87.463 27.5811C87.4783 27.6086 87.488 27.6388 87.4915 27.6701C87.4982 27.7329 87.4802 27.7958 87.4412 27.8454C87.4022 27.8951 87.3453 27.9275 87.2827 27.9359C85.5799 28.1381 83.8669 28.2411 82.1521 28.2443Z" fill="white"/>
<path id="Vector_34" d="M80.3533 110.072C80.3165 110.071 80.2803 110.063 80.2474 110.046C80.2145 110.03 80.1858 110.006 80.1635 109.977C80.145 109.952 80.1317 109.923 80.1244 109.893C80.117 109.862 80.1157 109.831 80.1206 109.8C80.1254 109.769 80.1363 109.739 80.1526 109.713C80.1689 109.686 80.1904 109.663 80.2157 109.645C87.1117 104.59 88.6922 95.9996 84.4302 86.6735C81.9526 81.2699 81.3885 75.1837 82.8308 69.4167C82.8395 69.386 82.8544 69.3574 82.8744 69.3326C82.8945 69.3078 82.9194 69.2873 82.9476 69.2723C82.9757 69.2573 83.0066 69.2482 83.0384 69.2454C83.0702 69.2427 83.1022 69.2463 83.1326 69.2562C83.1629 69.2661 83.1909 69.2821 83.215 69.303C83.239 69.324 83.2586 69.3496 83.2725 69.3784C83.2864 69.4071 83.2944 69.4383 83.296 69.4702C83.2975 69.502 83.2927 69.5339 83.2816 69.5639C81.8745 75.2119 82.4319 81.1708 84.8621 86.4599C89.2238 96.0091 87.5911 104.818 80.4957 110.015C80.4553 110.048 80.4055 110.068 80.3533 110.072Z" fill="white"/>
<path id="Vector_35" d="M70.1637 112.302C70.1185 112.303 70.0743 112.29 70.0364 112.265C69.9985 112.241 69.9685 112.206 69.9501 112.165C69.9367 112.137 69.9292 112.106 69.9279 112.075C69.9267 112.043 69.9317 112.012 69.9428 111.983C69.9539 111.954 69.9708 111.927 69.9924 111.904C70.014 111.882 70.04 111.864 70.0687 111.852C72.7313 110.641 74.9952 107.518 75.8352 103.892C76.3016 102.089 76.3366 100.201 75.9375 98.3808C75.5384 96.561 74.7165 94.8608 73.5381 93.4178C67.9805 86.6641 73.4717 78.3964 73.5381 78.3157C73.5738 78.2634 73.6286 78.2271 73.6907 78.2147C73.7528 78.2022 73.8173 78.2147 73.8704 78.2493C73.8964 78.2669 73.9187 78.2895 73.9359 78.3158C73.9531 78.3421 73.9649 78.3716 73.9707 78.4025C73.9764 78.4334 73.976 78.4651 73.9693 78.4959C73.9627 78.5266 73.95 78.5557 73.932 78.5815C73.8798 78.6622 68.5879 86.6498 73.932 93.114C76.4095 96.1231 77.2543 99.9864 76.3288 104.002C75.4555 107.765 73.0825 111.016 70.2918 112.284C70.2515 112.301 70.2073 112.308 70.1637 112.302Z" fill="white"/>
<path id="Vector_36" d="M16.452 94.8368C16.3879 94.8367 16.3264 94.8111 16.2811 94.7657C13.6091 91.956 15.9821 85.8762 18.0752 80.5274L18.5023 79.4263C20.5906 74.03 17.4677 67.4614 17.4345 67.3949C17.4079 67.3381 17.4044 67.2732 17.4248 67.2139C17.4452 67.1546 17.4878 67.1055 17.5436 67.0769C17.5716 67.0632 17.6021 67.0551 17.6333 67.0531C17.6645 67.0511 17.6957 67.0554 17.7253 67.0655C17.7548 67.0756 17.7821 67.0915 17.8055 67.1122C17.8289 67.1329 17.8479 67.158 17.8616 67.1861C17.9945 67.4614 21.1079 74.0062 18.9484 79.5971L18.5166 80.703C16.4757 85.9237 14.1596 91.8658 16.6181 94.4667C16.652 94.4997 16.675 94.5424 16.6841 94.5889C16.6931 94.6354 16.6877 94.6835 16.6686 94.7269C16.6495 94.7702 16.6176 94.8067 16.5772 94.8315C16.5368 94.8562 16.4898 94.868 16.4425 94.8653L16.452 94.8368Z" fill="white"/>
<path id="Vector_37" d="M24.3402 92.7058C24.2951 92.706 24.2509 92.6932 24.213 92.6687C24.175 92.6443 24.145 92.6093 24.1266 92.5682C21.9339 87.6987 27.8571 81.0589 28.1086 80.7789C28.1307 80.7566 28.1569 80.739 28.1858 80.7269C28.2147 80.7149 28.2458 80.7087 28.2771 80.7087C28.3084 80.7087 28.3394 80.7149 28.3684 80.7269C28.3973 80.739 28.4235 80.7566 28.4456 80.7789C28.4677 80.8005 28.4852 80.8264 28.4972 80.8549C28.5092 80.8834 28.5154 80.914 28.5154 80.945C28.5154 80.9759 28.5092 81.0065 28.4972 81.0351C28.4852 81.0636 28.4677 81.0894 28.4456 81.1111C28.3886 81.1775 22.4797 87.8031 24.5443 92.3878C24.5687 92.4452 24.57 92.5099 24.5479 92.5683C24.5258 92.6266 24.482 92.6742 24.4256 92.701C24.3977 92.7076 24.3687 92.7092 24.3402 92.7058Z" fill="white"/>
<path id="Vector_38" d="M15.3273 39.3929C15.2699 39.3925 15.2146 39.3718 15.1712 39.3344C15.1277 39.297 15.0989 39.2454 15.0899 39.1888C15.0615 38.98 12.3847 18.306 27.3633 12.5775C27.3926 12.5661 27.4239 12.5605 27.4553 12.5613C27.4867 12.562 27.5177 12.569 27.5464 12.5818C27.5751 12.5946 27.6009 12.613 27.6225 12.6359C27.644 12.6588 27.6608 12.6857 27.6718 12.7151C27.6832 12.7441 27.6886 12.775 27.6878 12.8061C27.687 12.8371 27.68 12.8678 27.6672 12.8961C27.6543 12.9244 27.636 12.9498 27.6131 12.9709C27.5903 12.992 27.5635 13.0083 27.5342 13.0189C12.902 18.624 15.5313 38.9231 15.5598 39.1224C15.568 39.184 15.5517 39.2463 15.5144 39.296C15.4771 39.3457 15.4219 39.3788 15.3605 39.3882L15.3273 39.3929Z" fill="white"/>
</g>
<path id="Vector_39" d="M15.65 172.198C15.5871 172.209 15.5222 172.195 15.4697 172.159C15.4172 172.122 15.3814 172.066 15.37 172.004C15.3587 171.941 15.3728 171.876 15.4093 171.823C15.4458 171.771 15.5017 171.735 15.5646 171.724C15.8304 171.624 42.3895 161.467 49.466 158.302C49.5225 158.28 49.585 158.281 49.6408 158.304C49.6966 158.327 49.7415 158.371 49.7663 158.426C49.7911 158.481 49.794 158.544 49.7743 158.601C49.7547 158.658 49.714 158.705 49.6606 158.733C42.5699 161.923 16.0013 172.079 15.7402 172.184L15.65 172.198Z" fill="#383333"/>
<path id="Vector_40" d="M4.18373 155.145C4.15564 155.152 4.12639 155.152 4.09831 155.145C4.06948 155.134 4.04313 155.118 4.0208 155.096C3.99847 155.075 3.98059 155.05 3.96823 155.021C3.95586 154.993 3.94924 154.963 3.94876 154.932C3.94828 154.901 3.95394 154.87 3.96542 154.842C4.06983 154.571 6.71341 148.254 20.6527 145.492C20.7143 145.481 20.7779 145.494 20.8294 145.53C20.881 145.566 20.9164 145.62 20.9279 145.682C20.9348 145.712 20.9355 145.743 20.9298 145.774C20.9241 145.804 20.9122 145.834 20.8949 145.859C20.8775 145.885 20.8551 145.907 20.829 145.924C20.8028 145.941 20.7735 145.952 20.7429 145.957C13.6237 147.381 9.53733 149.754 7.38735 151.519C5.06176 153.418 4.41154 154.998 4.4068 155.017C4.38542 155.057 4.35316 155.091 4.3137 155.113C4.27425 155.136 4.2292 155.147 4.18373 155.145Z" fill="#383333"/>
<path id="Vector_41" d="M19.637 133.351C19.5907 133.351 19.5453 133.338 19.5065 133.313C19.4677 133.288 19.4372 133.251 19.4187 133.209C15.9066 124.927 20.4438 116.811 20.4913 116.731C20.5239 116.679 20.5749 116.643 20.6338 116.628C20.6927 116.613 20.7549 116.622 20.8078 116.651C20.8607 116.681 20.9002 116.73 20.9181 116.788C20.936 116.846 20.931 116.909 20.9042 116.963C20.8567 117.044 16.4334 124.96 19.8553 133.024C19.8792 133.081 19.8797 133.146 19.8566 133.203C19.8335 133.261 19.7888 133.307 19.7319 133.332C19.702 133.345 19.6696 133.352 19.637 133.351Z" fill="#383333"/>
<path id="Vector_42" d="M1.20584 85.5644L1.19244 85.5692C0.533874 85.8072 0.192898 86.534 0.43085 87.1925L28.6104 165.184C28.8484 165.842 29.5751 166.183 30.2337 165.945L30.2471 165.94C30.9057 165.702 31.2466 164.976 31.0087 164.317L2.82913 86.326C2.59118 85.6674 1.86441 85.3265 1.20584 85.5644Z" fill="#FFB833"/>
<path id="Vector_43" d="M41.9102 154.908C41.9102 154.908 36.082 153.176 32.4845 152.938C28.8869 152.701 19.1337 151.04 20.6952 145.705C20.6952 145.705 18.4882 144.623 19.1432 141.728C19.1432 141.728 17.1736 140.029 18.194 138.116C18.194 138.116 15.7402 136.503 16.8793 134.652C18.0184 132.801 22.3753 132.563 24.7056 133.157C27.0359 133.75 35.147 138.956 41.0749 138.89C41.0701 138.89 47.3445 148.994 41.9102 154.908Z" fill="#FFDB99"/>
<path id="Vector_44" d="M37.7242 138.24C51.6911 140.673 65.8005 142.203 79.9644 142.82C89.0105 143.195 96.6375 143.105 98.8064 147.566C100.828 151.724 98.1942 160.096 92.4609 164.116C90.7523 165.316 85.4272 168.463 62.3564 162.383C53.7635 160.123 45.3379 157.268 37.1404 153.84C36.1356 152.788 35.3523 151.544 34.8371 150.184C34.3218 148.823 34.085 147.372 34.1408 145.918C34.1966 144.464 34.5437 143.036 35.1617 141.719C35.7797 140.402 36.656 139.222 37.7384 138.249L37.7242 138.24Z" fill="#FF832F"/>
<path id="Vector_45" d="M61.8484 137.552C61.8484 137.552 69.9927 136.745 74.0554 137.552C78.118 138.358 81.6207 146.004 81.4641 147.917C81.3074 149.83 78.2747 146.246 78.2747 146.246C78.2747 146.246 79.39 148.795 78.6733 149.569C77.9567 150.342 75.1707 146.617 75.1707 146.617C75.1707 146.617 75.9681 148.833 75.09 149.678C74.212 150.523 71.6586 145.881 71.6586 145.881C71.6586 145.881 72.3705 148.51 71.6586 148.909C70.9467 149.308 68.6116 144.533 66.5518 143.456C64.492 142.378 60.9799 142.858 59.67 141.263C59.2899 140.775 59.0335 140.203 58.9228 139.595C58.812 138.986 58.8502 138.36 59.034 137.77L61.8484 137.552Z" fill="#FFDB99"/>
<path id="Vector_46" d="M84.4686 166.28C67.3827 166.28 37.3494 154.177 37.0409 154.054C37.0119 154.042 36.9854 154.025 36.9631 154.003C36.9407 153.982 36.9228 153.956 36.9105 153.927C36.8981 153.898 36.8916 153.868 36.8911 153.836C36.8907 153.805 36.8964 153.774 36.908 153.745C36.9195 153.716 36.9366 153.69 36.9584 153.667C36.9801 153.645 37.006 153.627 37.0347 153.615C37.0633 153.603 37.0942 153.596 37.1253 153.596C37.1565 153.595 37.1875 153.601 37.2165 153.612C37.5392 153.741 69.5137 166.621 86.1013 165.762C86.1327 165.759 86.1645 165.762 86.1946 165.772C86.2247 165.782 86.2525 165.798 86.2762 165.819C86.2998 165.84 86.3189 165.865 86.3321 165.894C86.3453 165.923 86.3523 165.954 86.3528 165.985C86.3547 166.017 86.3503 166.049 86.3399 166.078C86.3294 166.108 86.313 166.136 86.2918 166.159C86.2706 166.183 86.2449 166.202 86.2163 166.215C86.1876 166.228 86.1566 166.236 86.125 166.237C85.5982 166.265 85.0334 166.28 84.4686 166.28Z" fill="#383333"/>
<path id="Vector_47" d="M64.5067 143.109C56.5428 142.526 37.8812 138.51 37.6961 138.468C37.6649 138.461 37.6353 138.449 37.609 138.431C37.5828 138.413 37.5603 138.39 37.5429 138.363C37.5254 138.336 37.5135 138.306 37.5076 138.275C37.5017 138.244 37.502 138.212 37.5086 138.181C37.5151 138.149 37.5278 138.12 37.5457 138.094C37.5637 138.067 37.5867 138.045 37.6133 138.027C37.64 138.01 37.6698 137.998 37.7011 137.992C37.7324 137.986 37.7646 137.987 37.7957 137.993C37.9808 138.031 56.614 142.042 64.54 142.621C64.571 142.622 64.6013 142.63 64.6291 142.644C64.657 142.658 64.6818 142.677 64.7022 142.7C64.7225 142.724 64.738 142.751 64.7476 142.781C64.7572 142.81 64.7609 142.841 64.7583 142.872C64.7583 142.904 64.7518 142.937 64.739 142.966C64.7262 142.996 64.7074 143.023 64.6838 143.045C64.6603 143.067 64.6324 143.085 64.6019 143.096C64.5715 143.107 64.5391 143.111 64.5067 143.109Z" fill="#383333"/>
<path id="Vector_48" d="M94.6108 147.685C94.5699 147.685 94.5296 147.674 94.4938 147.654C94.458 147.635 94.428 147.606 94.4067 147.571C91.2506 142.416 80.0783 143.057 79.9644 143.067C79.9332 143.068 79.902 143.064 79.8727 143.053C79.8433 143.043 79.8164 143.026 79.7935 143.005C79.7468 142.964 79.7179 142.906 79.7128 142.844C79.7128 142.801 79.4945 138.743 81.2363 131.928C82.9449 125.283 78.9297 120.238 78.8918 120.186C78.8717 120.162 78.8566 120.134 78.8474 120.105C78.8381 120.075 78.835 120.044 78.8381 120.013C78.8412 119.982 78.8505 119.952 78.8654 119.924C78.8803 119.897 78.9006 119.873 78.925 119.853C78.9736 119.814 79.0357 119.796 79.0979 119.802C79.1601 119.808 79.2174 119.839 79.2572 119.887C79.2999 119.939 83.467 125.16 81.6967 132.046C80.2064 137.855 80.1637 141.624 80.1779 142.573C81.9055 142.497 91.7394 142.298 94.8102 147.319C94.8267 147.346 94.8379 147.375 94.8431 147.406C94.8482 147.437 94.8472 147.468 94.8402 147.499C94.8331 147.529 94.8201 147.558 94.802 147.583C94.7838 147.609 94.7608 147.63 94.7342 147.647C94.6976 147.671 94.6548 147.684 94.6108 147.685Z" fill="#383333"/>
<path id="Vector_49" d="M18.1892 138.297C18.1456 138.295 18.104 138.277 18.0724 138.247C18.0407 138.217 18.021 138.177 18.0169 138.133C18.0128 138.09 18.0247 138.046 18.0503 138.011C18.0759 137.976 18.1134 137.951 18.156 137.941L21.3928 137.376C21.4174 137.368 21.4436 137.365 21.4694 137.368C21.4952 137.37 21.5202 137.379 21.5425 137.392C21.5649 137.405 21.5841 137.423 21.5988 137.444C21.6136 137.466 21.6236 137.49 21.6281 137.516C21.6326 137.541 21.6315 137.568 21.6249 137.593C21.6183 137.618 21.6063 137.641 21.5899 137.661C21.5734 137.681 21.5528 137.698 21.5294 137.709C21.506 137.72 21.4805 137.727 21.4545 137.727L18.2177 138.292L18.1892 138.297Z" fill="#383333"/>
<path id="Vector_50" d="M19.1434 141.909C19.1012 141.902 19.0628 141.88 19.0351 141.847C19.0074 141.815 18.9922 141.773 18.9922 141.731C18.9922 141.688 19.0074 141.646 19.0351 141.614C19.0628 141.581 19.1012 141.559 19.1434 141.553L21.4262 141.367C21.4494 141.365 21.4729 141.367 21.4953 141.374C21.5176 141.381 21.5383 141.392 21.5561 141.407C21.5739 141.422 21.5884 141.441 21.5987 141.462C21.609 141.483 21.6149 141.506 21.6161 141.529C21.6187 141.552 21.6166 141.576 21.6098 141.599C21.6031 141.621 21.5918 141.642 21.5767 141.66C21.5617 141.679 21.5431 141.694 21.5222 141.704C21.5012 141.715 21.4783 141.722 21.4547 141.723L19.1719 141.909H19.1434Z" fill="#383333"/>
<path id="Vector_51" d="M23.8086 146.341H23.7801L20.6952 145.867C20.672 145.864 20.6497 145.856 20.6295 145.845C20.6093 145.833 20.5916 145.818 20.5774 145.799C20.5633 145.78 20.553 145.759 20.5471 145.737C20.5413 145.714 20.54 145.691 20.5433 145.667C20.5503 145.62 20.5758 145.578 20.614 145.549C20.6523 145.521 20.7002 145.509 20.7474 145.516L23.8324 145.99C23.8555 145.993 23.8778 146.001 23.8981 146.012C23.9183 146.024 23.936 146.039 23.9501 146.058C23.9642 146.077 23.9746 146.098 23.9804 146.12C23.9863 146.143 23.9876 146.166 23.9842 146.19C23.9775 146.231 23.9562 146.27 23.9241 146.297C23.892 146.325 23.8511 146.341 23.8086 146.341Z" fill="#383333"/>
<path id="Vector_52" d="M71.6586 146.104C71.6168 146.104 71.5765 146.089 71.5444 146.062C71.5124 146.035 71.4907 145.998 71.483 145.957C71.1449 144.694 70.649 143.479 70.0069 142.34C69.9848 142.299 69.9799 142.25 69.9932 142.205C70.0065 142.16 70.037 142.121 70.0781 142.098C70.0986 142.087 70.1212 142.079 70.1446 142.077C70.168 142.074 70.1917 142.076 70.2142 142.083C70.2368 142.089 70.2578 142.1 70.276 142.115C70.2942 142.13 70.3093 142.149 70.3202 142.17C70.9832 143.339 71.4921 144.59 71.8342 145.891C71.8426 145.937 71.8323 145.985 71.8057 146.024C71.7791 146.063 71.7382 146.09 71.6918 146.099L71.6586 146.104Z" fill="#383333"/>
<path id="Vector_53" d="M75.1707 146.821C75.1329 146.821 75.096 146.809 75.0653 146.787C75.0347 146.765 75.0118 146.733 74.9998 146.697C74.3366 144.833 73.3853 143.084 72.1806 141.515C72.1663 141.497 72.1556 141.476 72.1493 141.454C72.143 141.431 72.1411 141.408 72.1437 141.385C72.1464 141.362 72.1535 141.34 72.1647 141.32C72.176 141.3 72.191 141.282 72.2091 141.268C72.2428 141.235 72.2879 141.217 72.3349 141.217C72.3819 141.217 72.427 141.235 72.4607 141.268C73.691 142.872 74.6616 144.659 75.3368 146.565C75.3449 146.587 75.3483 146.61 75.3469 146.634C75.3454 146.657 75.3392 146.68 75.3285 146.701C75.3178 146.722 75.3029 146.74 75.2847 146.755C75.2666 146.77 75.2455 146.781 75.2229 146.788L75.1707 146.821Z" fill="#383333"/>
<path id="Vector_54" d="M78.2749 146.422C78.235 146.422 78.1964 146.408 78.1653 146.383C78.1343 146.358 78.1127 146.323 78.104 146.284C77.4918 143.674 74.5492 140.3 74.516 140.266C74.493 140.23 74.4839 140.186 74.4903 140.144C74.4967 140.101 74.5183 140.062 74.5511 140.034C74.5838 140.005 74.6256 139.99 74.6689 139.99C74.7121 139.99 74.7538 140.006 74.7865 140.034C74.9099 140.172 77.8193 143.508 78.4505 146.204C78.4605 146.25 78.4523 146.298 78.4274 146.338C78.4026 146.377 78.3632 146.406 78.3176 146.417L78.2749 146.422Z" fill="#383333"/>
<path id="Vector_55" d="M41.0703 139.142C41.0097 139.142 40.9514 139.119 40.9073 139.077C40.8632 139.036 40.8366 138.979 40.833 138.919C40.831 138.888 40.8353 138.857 40.8456 138.827C40.8558 138.798 40.8718 138.771 40.8926 138.748C40.9133 138.725 40.9385 138.707 40.9666 138.693C40.9946 138.68 41.0251 138.673 41.056 138.672L59.02 137.59C59.0515 137.586 59.0833 137.59 59.1134 137.599C59.1435 137.609 59.1712 137.625 59.1949 137.646C59.2186 137.667 59.2376 137.692 59.2508 137.721C59.264 137.75 59.2711 137.781 59.2715 137.813C59.2735 137.844 59.2692 137.875 59.259 137.905C59.2489 137.934 59.233 137.961 59.2122 137.985C59.1915 138.008 59.1664 138.027 59.1383 138.041C59.1102 138.054 59.0797 138.062 59.0485 138.064L41.0845 139.142H41.0703Z" fill="#383333"/>
</g>
<g id="Brickwall">
<path id="Vector_56" d="M65.9778 63.4461C63.3308 63.4499 60.7422 62.6684 58.5395 61.2006C56.3368 59.7327 54.619 57.6445 53.6035 55.2001C52.5879 52.7557 52.3203 50.065 52.8344 47.4684C53.3485 44.8718 54.6212 42.4861 56.4916 40.6131C58.3619 38.7401 60.7459 37.4639 63.3417 36.9461C65.9375 36.4284 68.6286 36.6922 71.0745 37.7043C73.5203 38.7164 75.611 40.4312 77.0819 42.6318C78.5529 44.8324 79.3381 47.4199 79.3381 50.0669C79.3343 53.6108 77.9261 57.0089 75.4219 59.5166C72.9178 62.0243 69.5218 63.4373 65.9778 63.4461ZM65.9778 38.5861C63.7063 38.5823 61.4848 39.2525 59.5943 40.5117C57.7038 41.771 56.2293 43.5627 55.3574 45.6602C54.4856 47.7577 54.2555 50.0667 54.6963 52.295C55.1372 54.5233 56.2291 56.5708 57.834 58.1783C59.4388 59.7858 61.4845 60.8812 63.712 61.3257C65.9396 61.7702 68.249 61.544 70.348 60.6756C72.4469 59.8072 74.2411 58.3357 75.5034 56.4473C76.7658 54.5588 77.4396 52.3384 77.4396 50.0669C77.4359 47.0264 76.2277 44.1113 74.0795 41.9596C71.9314 39.8079 69.0183 38.5949 65.9778 38.5861Z" fill="white"/>
<path id="Vector_57" d="M31.9817 63.4462C29.3353 63.4471 26.7481 62.6632 24.5473 61.1937C22.3464 59.7241 20.6308 57.6349 19.6175 55.1902C18.6041 52.7456 18.3385 50.0553 18.8542 47.4597C19.3699 44.864 20.6437 42.4797 22.5147 40.6081C24.3856 38.7365 26.7696 37.4617 29.365 36.9451C31.9604 36.4285 34.6508 36.6932 37.0958 37.7057C39.5408 38.7182 41.6307 40.433 43.101 42.6333C44.5713 44.8336 45.3561 47.4206 45.3561 50.0669C45.3524 53.6133 43.9422 57.0135 41.435 59.5216C38.9277 62.0298 35.5281 63.4411 31.9817 63.4462ZM31.9817 38.5861C29.7108 38.5852 27.4906 39.2577 25.602 40.5187C23.7133 41.7796 22.2411 43.5724 21.3714 45.6701C20.5017 47.7679 20.2737 50.0764 20.7161 52.3038C21.1586 54.5312 22.2516 56.5773 23.8571 58.1834C25.4625 59.7895 27.5082 60.8834 29.7354 61.3268C31.9626 61.7702 34.2712 61.5431 36.3693 60.6743C38.4674 59.8054 40.2608 58.3339 41.5225 56.4458C42.7842 54.5577 43.4577 52.3378 43.4577 50.0669C43.4539 47.024 42.2438 44.1067 40.0926 41.9546C37.9414 39.8025 35.0246 38.5911 31.9817 38.5861Z" fill="white"/>
</g>
</g>
</svg>
