<svg width="65" height="65" viewBox="0 0 65 65" fill="none" xmlns="http://www.w3.org/2000/svg">
<path d="M32.875 62.5C28.985 62.5 25.3962 59.2736 22.7701 53.4151C20.2582 47.8125 18.875 40.3841 18.875 32.5C18.875 24.6159 20.2582 17.1881 22.7701 11.5849C25.3962 5.72638 28.985 2.5 32.875 2.5C36.765 2.5 40.3537 5.72638 42.9799 11.5849C45.4917 17.1881 46.875 24.6159 46.875 32.5C46.875 40.3841 45.4917 47.8125 42.9799 53.4151C40.3537 59.2736 36.765 62.5 32.875 62.5ZM32.875 4.5C29.8645 4.5 26.8466 7.3805 24.5951 12.403C22.1961 17.7545 20.875 24.8918 20.875 32.5C20.875 40.1082 22.1961 47.2455 24.5951 52.597C26.8466 57.6195 29.8645 60.5 32.875 60.5C35.8855 60.5 38.9034 57.6195 41.1549 52.597C43.5539 47.2455 44.875 40.1082 44.875 32.5C44.875 24.8918 43.5539 17.7545 41.1549 12.403C38.9034 7.3805 35.8855 4.5 32.875 4.5Z" fill="#3397E8"/>
<path d="M50.2275 53.5007C48.5385 53.488 46.8539 53.3263 45.1933 53.0175C38.673 51.8497 31.233 48.6896 24.2433 44.1191C19.0597 40.7292 14.5197 36.8135 11.114 32.795C7.73758 28.8112 5.63983 24.9261 5.04758 21.5597C4.59346 18.9781 5.02158 16.7907 6.32046 15.0584C8.71858 11.8604 13.775 10.7681 20.5566 11.9825C27.077 13.1502 34.517 16.3104 41.5066 20.8809C46.6902 24.2707 51.2302 28.1865 54.636 32.205C58.0123 36.1887 60.1101 40.0739 60.7023 43.4401C61.1565 46.0219 60.7283 48.2092 59.4295 49.9416C57.67 52.2875 54.48 53.5007 50.2275 53.5007ZM15.5512 13.5037C11.9618 13.5037 9.27808 14.4482 7.92121 16.2581C6.96708 17.5305 6.66321 19.1977 7.01783 21.2132C8.13521 27.5632 15.3265 35.8979 25.3385 42.4452C32.1077 46.872 39.2841 49.9274 45.5458 51.0487C51.4583 52.1076 55.9358 51.2669 57.8287 48.7419C58.7828 47.4695 59.0867 45.8022 58.7321 43.7867C57.6147 37.4367 50.4235 29.1021 40.4115 22.5547C33.6422 18.128 26.4658 15.0726 20.2041 13.9512C18.6693 13.6657 17.1123 13.516 15.5512 13.5037Z" fill="#1261A0"/>
<path d="M15.5224 53.5007C11.2693 53.5007 8.0802 52.2882 6.32095 49.9416C5.02207 48.2092 4.59395 46.0218 5.04807 43.4401C5.64032 40.0738 7.73807 36.1887 11.1144 32.2049C14.5202 28.1864 19.0602 24.2707 24.2438 20.8808C31.2329 16.3103 38.6729 13.1502 45.1938 11.9824C51.9762 10.7679 57.0313 11.8602 59.4294 15.0583C60.7283 16.7907 61.1564 18.9781 60.7023 21.5597C60.1101 24.9261 58.0123 28.8112 54.6359 32.7949C51.2302 36.8134 46.6902 40.7292 41.5066 44.1191C34.5174 48.6896 27.0774 51.8497 20.5566 53.0175C18.896 53.3262 17.2114 53.4879 15.5224 53.5007ZM25.3384 22.5547C15.3264 29.1021 8.1352 37.4362 7.01782 43.7867C6.6632 45.8022 6.96707 47.4695 7.9212 48.7418C9.8142 51.2668 14.2912 52.1076 20.2041 51.0487C26.4658 49.9273 33.6416 46.8719 40.4114 42.4452C50.4239 35.8978 57.6147 27.5637 58.7321 21.2132C59.0867 19.1977 58.7828 17.5304 57.8287 16.2581C55.9357 13.7331 51.4587 12.8923 45.5458 13.9512C39.2841 15.0726 32.1077 18.1279 25.3384 22.5547Z" fill="#2978B8"/>
<path d="M32.875 39.5C36.741 39.5 39.875 36.366 39.875 32.5C39.875 28.634 36.741 25.5 32.875 25.5C29.009 25.5 25.875 28.634 25.875 32.5C25.875 36.366 29.009 39.5 32.875 39.5Z" fill="#EB423F"/>
<path d="M8.875 40.5C10.5319 40.5 11.875 39.1569 11.875 37.5C11.875 35.8431 10.5319 34.5 8.875 34.5C7.21815 34.5 5.875 35.8431 5.875 37.5C5.875 39.1569 7.21815 40.5 8.875 40.5Z" fill="#F7B030"/>
<path d="M48.875 55.5C50.5319 55.5 51.875 54.1569 51.875 52.5C51.875 50.8431 50.5319 49.5 48.875 49.5C47.2181 49.5 45.875 50.8431 45.875 52.5C45.875 54.1569 47.2181 55.5 48.875 55.5Z" fill="#F7B030"/>
<path d="M39.875 11.5C41.5319 11.5 42.875 10.1569 42.875 8.5C42.875 6.84315 41.5319 5.5 39.875 5.5C38.2181 5.5 36.875 6.84315 36.875 8.5C36.875 10.1569 38.2181 11.5 39.875 11.5Z" fill="#F7B030"/>
</svg>
