<svg width="63" height="61" viewBox="0 0 63 61" fill="none" xmlns="http://www.w3.org/2000/svg">
<path d="M26.6526 38.0442V57.0018C26.6526 59.0673 24.9847 60.7352 22.9192 60.7352H3.96167C1.89621 60.7352 0.228333 59.0673 0.228333 57.0018V38.0442C0.228333 35.9788 1.89621 34.3109 3.96167 34.3109H22.9192C24.9847 34.3109 26.6526 35.9788 26.6526 38.0442Z" fill="#FB6E52"/>
<g opacity="0.15">
<path d="M2.47801 49.4868C2.16771 49.4868 1.91559 49.2347 1.91559 48.9244V38.0444C1.91559 36.9195 2.8368 35.9983 3.96165 35.9983H6.55074C6.86104 35.9983 7.11316 36.2504 7.11316 36.5607C7.11316 36.871 6.86104 37.1231 6.55074 37.1231H3.96165C3.45741 37.1231 3.04044 37.5401 3.04044 38.0444V48.9244C3.04044 49.2347 2.78832 49.4868 2.47801 49.4868Z" fill="white"/>
</g>
<path d="M26.6526 38.0443V57.0019C26.6526 59.0576 24.9847 60.7255 22.929 60.7255H3.97138C1.96411 60.7255 0.325317 59.1449 0.247742 57.1667H18.5265C20.592 57.1667 22.2599 55.4988 22.2599 53.4334V34.4758C22.2599 34.4176 22.2599 34.3691 22.2502 34.3013H22.9193C24.9847 34.311 26.6526 35.9788 26.6526 38.0443Z" fill="#EA573F"/>
<path d="M53.0768 38.0442V57.0018C53.0768 59.0673 51.409 60.7352 49.3435 60.7352H30.3859C28.3205 60.7352 26.6526 59.0673 26.6526 57.0018V38.0442C26.6526 35.9788 28.3205 34.3109 30.3859 34.3109H49.3435C51.409 34.3109 53.0768 35.9788 53.0768 38.0442Z" fill="#A1D469"/>
<path d="M53.0768 38.0443V57.0019C53.0768 59.0576 51.409 60.7255 49.3532 60.7255H30.3956C28.3884 60.7255 26.7496 59.1449 26.672 57.1667H44.9508C47.0162 57.1667 48.6841 55.4988 48.6841 53.4334V34.4758C48.6841 34.4176 48.6841 34.3691 48.6744 34.3013H49.3435C51.409 34.311 53.0768 35.9788 53.0768 38.0443Z" fill="#8DC050"/>
<path d="M7.87923 52.0758C7.74348 51.94 7.6756 51.7655 7.6756 51.5618C7.6756 51.4746 7.70469 51.3679 7.75317 51.2418L11.8162 41.6515C11.9035 41.4576 12.0198 41.3024 12.175 41.1861C12.3301 41.06 12.5144 41.0018 12.7374 41.0018H12.9023C13.1253 41.0018 13.3095 41.06 13.4647 41.1861C13.6198 41.3121 13.7362 41.4673 13.8235 41.6515L17.8865 51.2418C17.935 51.3679 17.9641 51.4746 17.9641 51.5618C17.9641 51.7655 17.8962 51.9303 17.7604 52.0758C17.6247 52.2115 17.4598 52.2794 17.2465 52.2794C17.1011 52.2794 16.9653 52.2406 16.8392 52.163C16.7132 52.0855 16.6356 51.9788 16.5774 51.8333L15.5398 49.3509H10.1192L9.08166 51.8333C9.01378 51.9691 8.92651 52.0758 8.80045 52.163C8.67439 52.2503 8.53863 52.2794 8.39317 52.2794C8.18954 52.2794 8.01499 52.2115 7.87923 52.0758ZM10.6817 48.0321H14.9871L12.8344 42.854L10.6817 48.0321Z" fill="white"/>
<path d="M34.1289 51.9983C33.9932 51.8625 33.9253 51.688 33.9253 51.4843V41.8067C33.9253 41.6031 33.9932 41.4286 34.1289 41.2928C34.2647 41.157 34.4392 41.0795 34.6429 41.0795H38.4053C39.5398 41.0795 40.4223 41.3413 41.0429 41.8649C41.6635 42.3886 41.9738 43.0867 41.9738 43.9692C41.9738 44.5898 41.8283 45.094 41.5374 45.511C41.2465 45.9183 40.8683 46.2286 40.4126 46.4322C41.0526 46.6358 41.5762 46.9558 41.9835 47.4019C42.3907 47.848 42.5944 48.4104 42.5944 49.0892C42.5944 50.0686 42.2647 50.8346 41.6053 51.3873C40.9459 51.9401 39.9083 52.2116 38.5023 52.2116H34.6429C34.4295 52.2019 34.2647 52.134 34.1289 51.9983ZM38.0174 45.8892C38.958 45.8892 39.6271 45.734 40.0053 45.414C40.3835 45.094 40.5774 44.648 40.5774 44.0758C40.5774 43.5716 40.3738 43.174 39.9665 42.8831C39.5592 42.5825 38.9968 42.437 38.2889 42.437H35.3701V45.8989H38.0174V45.8892ZM38.3471 50.854C39.375 50.854 40.112 50.6989 40.5386 50.3789C40.9653 50.0589 41.1883 49.6128 41.1883 49.0213C41.1883 47.8092 40.2477 47.208 38.3665 47.208H35.3701V50.854H38.3471Z" fill="white"/>
<path d="M36.3204 43.6976L35.4768 45.2588C35.341 45.511 35.438 45.8213 35.6901 45.957C35.9325 46.0928 36.2525 45.9958 36.3883 45.7437L37.2319 44.1825L36.3204 43.6976Z" fill="#434A54"/>
<path d="M50.798 9.09888L36.4368 35.7946L38.8804 37.1037L41.3046 38.4128L43.7483 39.7219L58.0998 13.0261L55.6562 11.7171L53.2222 10.408L50.798 9.09888Z" fill="#ED5463"/>
<g opacity="0.15">
<path d="M49.2077 26.6213C49.1883 26.5534 49.1883 26.4661 49.2271 26.3983L56.2283 13.3752C56.3059 13.2298 56.4901 13.1813 56.6259 13.2589C56.7713 13.3364 56.8198 13.5207 56.7422 13.6564L49.741 26.6795C49.6634 26.8249 49.4792 26.8734 49.3434 26.7958C49.2756 26.7571 49.2271 26.6892 49.2077 26.6213Z" fill="white"/>
</g>
<path d="M50.7979 9.09888L36.4464 35.7946L38.8804 37.1037L41.3143 38.4128L43.7482 39.7219L44.33 38.6358L43.7579 38.3255L41.324 37.0165C39.9761 36.2892 39.4719 34.6116 40.1991 33.2734L52.65 10.0977L50.7979 9.09888Z" fill="#DC4453"/>
<path d="M50.8203 9.08716L53.9091 3.34624L61.2134 7.27613L58.1246 13.017L50.8203 9.08716Z" fill="#CDD0DA"/>
<path d="M53.8816 3.34854L54.9774 1.30248C55.4913 0.342478 56.684 -0.0163097 57.644 0.49763L61.4743 2.55339C62.4343 3.06733 62.7931 4.26005 62.2792 5.22005L61.1834 7.26611L53.8816 3.34854Z" fill="#646D78"/>
<path d="M52.6519 5.69519L53.2126 4.65294L60.5169 8.58283L59.9561 9.62508L52.6519 5.69519Z" fill="#E7E9EE"/>
<path d="M51.5205 7.78589L52.0813 6.74364L59.3856 10.6735L58.8248 11.7158L51.5205 7.78589Z" fill="#E7E9EE"/>
<path d="M36.4367 35.7946L35.7483 43.4067C35.7386 43.5715 35.7483 43.7267 35.7967 43.8818C35.8937 44.1921 36.0973 44.4636 36.4076 44.6188C36.8537 44.8612 37.3967 44.8127 37.7846 44.4927L43.7386 39.7218L36.4367 35.7946Z" fill="#FFCE54"/>
<path d="M36.4367 35.7946L35.7483 43.4067C35.7386 43.5715 35.7483 43.7267 35.7967 43.8818C35.8937 44.1921 36.0973 44.4636 36.4076 44.6188C36.8537 44.8612 37.3967 44.8127 37.7846 44.4927L37.804 44.4733C37.7652 44.4636 37.7167 44.4443 37.6876 44.4249C37.387 44.2697 37.1737 43.9982 37.0767 43.6879C37.0283 43.5327 37.0186 43.3776 37.0283 43.2127L37.6392 36.4346L36.4367 35.7946Z" fill="#F6BB43"/>
</svg>
