<svg width="65" height="65" viewBox="0 0 65 65" fill="none" xmlns="http://www.w3.org/2000/svg">
<g clip-path="url(#clip0_1214_1423)">
<path d="M39.9584 49.4334C40.7584 46.7668 42.3584 44.3668 44.4917 42.5C48.4917 39.1666 51.0251 34.1 51.0251 28.5C51.0251 18.1 42.3585 9.56664 31.6917 10.1C22.225 10.5 14.4916 18.5 14.225 27.9666C14.0916 33.8334 16.625 39.0334 20.7584 42.5C23.025 44.3666 24.625 46.7666 25.425 49.4334H39.9584Z" fill="#FFD15C"/>
<path d="M30.8917 49.7H32.0917L26.7583 29.8334C26.8917 29.8334 27.0249 29.8334 27.1583 29.8334C27.8249 29.8334 28.4917 29.5668 29.0249 29.0334C29.2916 28.7668 29.5583 28.6334 29.9583 28.6334C30.3583 28.6334 30.6249 28.7668 30.8917 29.0334C31.8251 30.1 33.4251 30.1 34.3583 29.0334C34.6249 28.7668 34.8917 28.6334 35.2917 28.6334C35.5583 28.6334 35.9583 28.7668 36.2251 29.0334C36.7584 29.5668 37.2917 29.8334 38.0917 29.8334C38.2251 29.8334 38.3583 29.8334 38.4917 29.8334L33.2917 49.7H34.4917L39.9583 28.9C39.9583 28.6334 39.9583 28.3666 39.6917 28.2334C39.4251 28.1 39.1583 28.2334 39.0251 28.3668C38.7584 28.6334 38.4917 28.7668 38.2251 28.7668C37.8251 28.7668 37.5584 28.6334 37.1584 28.3668C36.6251 27.8334 36.0918 27.5668 35.4251 27.5668C34.7583 27.5668 34.2251 27.8334 33.6917 28.3668C33.1583 28.9001 32.3583 28.9001 31.8251 28.3668C31.4251 27.8334 30.7584 27.5668 30.0917 27.5668C29.4251 27.5668 28.7583 27.8334 28.3583 28.3668C28.0917 28.6334 27.6917 28.7668 27.2917 28.7668C27.0251 28.7668 26.6251 28.6334 26.4917 28.3668C26.3583 28.2334 26.0917 28.1001 25.8251 28.2334C25.5584 28.3668 25.4251 28.6334 25.5584 28.9L30.8917 49.7Z" fill="white"/>
<path d="M28.4916 61.7C29.1583 63.3 30.7583 64.5 32.625 64.5C34.4916 64.5 36.0916 63.3 36.7583 61.7H28.4916Z" fill="#344A5E"/>
<path d="M37.5584 61.8334H27.8251C26.4917 61.8334 25.425 60.7668 25.425 59.4334V49.3H39.9584V59.4334C39.9584 60.7667 38.8917 61.8334 37.5584 61.8334Z" fill="#344A5E"/>
<path d="M39.825 54.3666H25.425C24.625 54.3666 23.9584 53.7 23.9584 52.9C23.9584 52.1 24.625 51.4333 25.425 51.4333H39.825C40.625 51.4333 41.2916 52.1 41.2916 52.9C41.2916 53.7 40.625 54.3666 39.825 54.3666Z" fill="#415A6B"/>
<path d="M39.8249 59.0335H25.4249C24.6249 59.0335 23.9583 58.3668 23.9583 57.5668C23.9583 56.7668 24.6249 56.1002 25.4249 56.1002H39.8249C40.6249 56.1002 41.2915 56.7668 41.2915 57.5668C41.2915 58.3667 40.6249 59.0335 39.8249 59.0335Z" fill="#415A6B"/>
<path d="M32.6251 0.5C31.9585 0.5 31.2917 1.03337 31.2917 1.83337V6.36675C31.2917 7.03337 31.8251 7.70013 32.6251 7.70013C33.4251 7.70013 33.9585 7.16675 33.9585 6.36675V1.83337C33.9585 1.03337 33.2917 0.5 32.6251 0.5Z" fill="#FFD15C"/>
<path d="M14.7586 8.63343C14.2252 8.10005 13.4252 8.10005 12.8919 8.63343C12.3587 9.1668 12.3586 9.9668 12.8919 10.5001L16.0919 13.7001C16.6253 14.2334 17.4253 14.2334 17.9586 13.7001C18.4918 13.1667 18.4919 12.3667 17.9586 11.8334L14.7586 8.63343Z" fill="#FFD15C"/>
<path d="M10.6252 27.0333H6.0918C5.42517 27.0333 4.75842 27.5667 4.75842 28.3667C4.75842 29.0333 5.2918 29.7001 6.0918 29.7001H10.6252C11.2918 29.7001 11.9585 29.1667 11.9585 28.3667C11.9585 27.7 11.2918 27.0333 10.6252 27.0333Z" fill="#FFD15C"/>
<path d="M16.0917 43.0334L12.8917 46.2334C12.3584 46.7668 12.3584 47.5668 12.8917 48.1C13.4251 48.6333 14.2251 48.6334 14.7584 48.1L17.9584 44.9C18.4917 44.3667 18.4917 43.5667 17.9584 43.0334C17.425 42.5002 16.6251 42.5 16.0917 43.0334Z" fill="#FFD15C"/>
<path d="M49.1585 43.0333C48.6251 42.5 47.8251 42.5 47.2918 43.0333C46.7584 43.5667 46.7584 44.3667 47.2918 44.9L50.4918 48.1C51.0251 48.6333 51.8251 48.6333 52.3584 48.1C52.8916 47.5666 52.8918 46.7666 52.3584 46.2333L49.1585 43.0333Z" fill="#FFD15C"/>
<path d="M59.1585 27.0333H54.6251C53.9585 27.0333 53.2917 27.5667 53.2917 28.3667C53.2917 29.0333 53.8251 29.7001 54.6251 29.7001H59.1585C59.8251 29.7001 60.4919 29.1667 60.4919 28.3667C60.4917 27.7 59.9585 27.0333 59.1585 27.0333Z" fill="#FFD15C"/>
<path d="M50.4918 8.63338L47.2918 11.8334C46.7584 12.3668 46.7584 13.1668 47.2918 13.7C47.8251 14.2334 48.6251 14.2334 49.1584 13.7L52.3584 10.5C52.8918 9.96663 52.8918 9.16663 52.3584 8.63338C51.825 8.10013 51.0251 8.10001 50.4918 8.63338Z" fill="#FFD15C"/>
</g>
<defs>
<clipPath id="clip0_1214_1423">
<rect width="64" height="64" fill="white" transform="translate(0.625 0.5)"/>
</clipPath>
</defs>
</svg>
