<svg width="51" height="63" viewBox="0 0 51 63" fill="none" xmlns="http://www.w3.org/2000/svg">
<path fill-rule="evenodd" clip-rule="evenodd" d="M50.3382 62.2962H6.16479C6.16479 13.7957 6.16479 52.0532 6.16479 17.0752L16.8333 6.40674H50.3382V62.2962Z" fill="#C8C9CD"/>
<path fill-rule="evenodd" clip-rule="evenodd" d="M44.6353 56.5931H0.461914C0.461914 8.09261 0.461914 46.3501 0.461914 11.3722L11.1304 0.703613H44.6353V56.5931Z" fill="#F0F0F0"/>
<path fill-rule="evenodd" clip-rule="evenodd" d="M0.461914 11.3721L11.1304 0.703613V11.3721H0.461914Z" fill="#E0DFE1"/>
<path fill-rule="evenodd" clip-rule="evenodd" d="M38.7088 15.2515C39.2265 15.2515 39.6463 15.6712 39.6463 16.189C39.6463 16.7067 39.2265 17.1265 38.7088 17.1265H19.1558C18.638 17.1265 18.2183 16.7067 18.2183 16.189C18.2183 15.6712 18.638 15.2515 19.1558 15.2515H38.7088ZM38.7088 46.8913C39.2265 46.8913 39.6463 47.3111 39.6463 47.8288C39.6463 48.3466 39.2265 48.7663 38.7088 48.7663H19.1558C18.638 48.7663 18.2183 48.3466 18.2183 47.8288C18.2183 47.3111 18.638 46.8913 19.1558 46.8913H38.7088ZM38.7088 42.1373C39.2265 42.1373 39.6463 42.5571 39.6463 43.0748C39.6463 43.5926 39.2265 44.0123 38.7088 44.0123H19.1558C18.638 44.0123 18.2183 43.5926 18.2183 43.0748C18.2183 42.5571 18.638 42.1373 19.1558 42.1373H38.7088ZM38.7088 33.4483C39.2265 33.4483 39.6463 33.8681 39.6463 34.3858C39.6463 34.9036 39.2265 35.3233 38.7088 35.3233H19.1558C18.638 35.3233 18.2183 34.9036 18.2183 34.3858C18.2183 33.8681 18.638 33.4483 19.1558 33.4483H38.7088ZM38.7088 28.6943C39.2265 28.6943 39.6463 29.1141 39.6463 29.6318C39.6463 30.1496 39.2265 30.5693 38.7088 30.5693H19.1558C18.638 30.5693 18.2183 30.1496 18.2183 29.6318C18.2183 29.1141 18.638 28.6943 19.1558 28.6943H38.7088ZM38.7088 20.0055C39.2265 20.0055 39.6463 20.4252 39.6463 20.943C39.6463 21.4607 39.2265 21.8805 38.7088 21.8805H19.1558C18.638 21.8805 18.2183 21.4607 18.2183 20.943C18.2183 20.4252 18.638 20.0055 19.1558 20.0055H38.7088Z" fill="#98999B"/>
<path fill-rule="evenodd" clip-rule="evenodd" d="M5.69219 18.9766C5.34632 18.5924 5.37757 18.0005 5.76182 17.6546C6.14607 17.3088 6.73794 17.3399 7.08382 17.7243L9.07782 19.9449L13.1792 15.1601C13.5149 14.7678 14.1052 14.7219 14.4976 15.0576C14.8899 15.3934 14.9358 15.9836 14.6001 16.376L9.83407 21.9364C9.80032 21.9799 9.76219 22.0211 9.71969 22.0593C9.33544 22.4051 8.74357 22.374 8.39769 21.9896L5.69219 18.9766ZM5.69219 45.8624C5.34632 45.4781 5.37757 44.8863 5.76182 44.5404C6.14607 44.1945 6.73794 44.2258 7.08382 44.61L9.07782 46.8306L13.1792 42.0459C13.5149 41.6535 14.1052 41.6076 14.4976 41.9434C14.8899 42.2791 14.9358 42.8694 14.6001 43.2618L9.83407 48.8221C9.80032 48.8656 9.76219 48.9069 9.71969 48.945C9.33544 49.2909 8.74357 49.2596 8.39769 48.8754L5.69219 45.8624ZM5.69219 32.4195C5.34632 32.0353 5.37757 31.4434 5.76182 31.0975C6.14607 30.7516 6.73794 30.7828 7.08382 31.1671L9.07782 33.3878L13.1792 28.603C13.5149 28.2106 14.1052 28.1648 14.4976 28.5005C14.8899 28.8363 14.9358 29.4265 14.6001 29.8189L9.83407 35.3793C9.80032 35.4228 9.76219 35.464 9.71969 35.5021C9.33544 35.848 8.74357 35.8168 8.39769 35.4325L5.69219 32.4195Z" fill="#43A2FF"/>
</svg>
