<svg width="65" height="65" viewBox="0 0 65 65" fill="none" xmlns="http://www.w3.org/2000/svg">
<g clip-path="url(#clip0_1214_1369)">
<path d="M34.0074 12.7353L32.125 7.08826H9.53677L0.125 12.7353V22.1471L9.53677 16.5H18.9485V31.6946C18.9485 39.0327 17.2401 46.2698 13.9584 52.8332L11.4191 57.9118H20.8309L23.3702 52.8332C26.6519 46.2698 28.3603 39.0327 28.3603 31.6946V16.5H32.125L34.0074 12.7353Z" fill="#FF884D"/>
<path d="M64.125 16.5V7.08826H32.125V16.5H37.7721V44.7353C37.7721 52.0125 43.6714 57.9118 50.9485 57.9118C58.2257 57.9118 64.125 52.0125 64.125 44.7353V40.9706H54.7132V44.7353C54.7132 46.8144 53.0277 48.5 50.9485 48.5C48.8694 48.5 47.1838 46.8144 47.1838 44.7353V16.5H64.125Z" fill="#FF4D4D"/>
</g>
<defs>
<clipPath id="clip0_1214_1369">
<rect width="64" height="64" fill="white" transform="translate(0.125 0.5)"/>
</clipPath>
</defs>
</svg>
