<svg width="32" height="32" viewBox="0 0 32 32" fill="none" xmlns="http://www.w3.org/2000/svg">
<path d="M13.3333 4.26673C11.2476 4.75025 9.32922 5.78299 7.77716 7.25784C6.22511 8.73269 5.09591 10.5959 4.5067 12.6543C3.91748 14.7127 3.8897 16.8912 4.42624 18.9639C4.96279 21.0366 6.04411 22.9281 7.55805 24.442C9.072 25.9559 10.9634 27.0373 13.0361 27.5738C15.1089 28.1103 17.2874 28.0826 19.3458 27.4934C21.4041 26.9041 23.2674 25.7749 24.7422 24.2229C26.2171 22.6708 27.2498 20.7525 27.7333 18.6667C27.7333 18.3131 27.5928 17.974 27.3428 17.7239C27.0928 17.4739 26.7536 17.3334 26.4 17.3334H17.3333C16.6261 17.3334 15.9478 17.0524 15.4477 16.5523C14.9476 16.0522 14.6667 15.374 14.6667 14.6667V5.33339C14.6501 5.17543 14.6023 5.02232 14.5261 4.88295C14.45 4.74358 14.3469 4.62072 14.2228 4.5215C14.0988 4.42228 13.9563 4.34867 13.8036 4.30493C13.6509 4.2612 13.4911 4.24821 13.3333 4.26673Z" stroke="#007CBD" stroke-width="2" stroke-linecap="round" stroke-linejoin="round"/>
<path d="M20 4.66663C21.693 5.26274 23.2306 6.23102 24.4998 7.50017C25.7689 8.76932 26.7372 10.307 27.3333 12H21.3333C20.9797 12 20.6406 11.8595 20.3905 11.6094C20.1405 11.3594 20 11.0202 20 10.6666V4.66663Z" stroke="#007CBD" stroke-width="2" stroke-linecap="round" stroke-linejoin="round"/>
</svg>
