<svg width="32" height="32" viewBox="0 0 32 32" fill="none" xmlns="http://www.w3.org/2000/svg">
<path d="M6.66669 6.66667C6.66669 5.95942 6.94764 5.28115 7.44774 4.78105C7.94783 4.28095 8.62611 4 9.33335 4H22.6667C23.3739 4 24.0522 4.28095 24.5523 4.78105C25.0524 5.28115 25.3334 5.95942 25.3334 6.66667V25.3333C25.3334 26.0406 25.0524 26.7189 24.5523 27.219C24.0522 27.719 23.3739 28 22.6667 28H9.33335C8.62611 28 7.94783 27.719 7.44774 27.219C6.94764 26.7189 6.66669 26.0406 6.66669 25.3333V6.66667Z" stroke="white" stroke-width="2" stroke-linecap="round" stroke-linejoin="round"/>
<path d="M12 9.33337H20" stroke="white" stroke-width="2" stroke-linecap="round" stroke-linejoin="round"/>
<path d="M12 14.6666H20" stroke="white" stroke-width="2" stroke-linecap="round" stroke-linejoin="round"/>
<path d="M12 20H17.3333" stroke="white" stroke-width="2" stroke-linecap="round" stroke-linejoin="round"/>
</svg>
