<svg width="32" height="32" viewBox="0 0 32 32" fill="none" xmlns="http://www.w3.org/2000/svg">
<path d="M6.66675 6.66667C6.66675 5.95942 6.9477 5.28115 7.4478 4.78105C7.94789 4.28095 8.62617 4 9.33341 4H22.6667C23.374 4 24.0523 4.28095 24.5524 4.78105C25.0525 5.28115 25.3334 5.95942 25.3334 6.66667V25.3333C25.3334 26.0406 25.0525 26.7189 24.5524 27.219C24.0523 27.719 23.374 28 22.6667 28H9.33341C8.62617 28 7.94789 27.719 7.4478 27.219C6.9477 26.7189 6.66675 26.0406 6.66675 25.3333V6.66667Z" stroke="#007CBD" stroke-width="2" stroke-linecap="round" stroke-linejoin="round"/>
<path d="M12 9.33337H20" stroke="#007CBD" stroke-width="2" stroke-linecap="round" stroke-linejoin="round"/>
<path d="M12 14.6666H20" stroke="#007CBD" stroke-width="2" stroke-linecap="round" stroke-linejoin="round"/>
<path d="M12 20H17.3333" stroke="#007CBD" stroke-width="2" stroke-linecap="round" stroke-linejoin="round"/>
</svg>
