<svg width="56" height="56" viewBox="0 0 56 56" fill="none" xmlns="http://www.w3.org/2000/svg">
<path d="M23.4371 18.698V36.5016C23.437 36.6995 23.4898 36.894 23.59 37.0647C23.6901 37.2355 23.834 37.3765 24.0068 37.4731C24.1797 37.5697 24.3751 37.6185 24.5731 37.6143C24.771 37.6102 24.9643 37.5533 25.1329 37.4496L39.5983 28.5478C39.7603 28.4483 39.8941 28.3088 39.9869 28.1429C40.0797 27.9769 40.1285 27.7899 40.1285 27.5998C40.1285 27.4096 40.0797 27.2226 39.9869 27.0567C39.8941 26.8907 39.7603 26.7513 39.5983 26.6517L25.1329 17.75C24.9643 17.6462 24.771 17.5893 24.5731 17.5852C24.3751 17.5811 24.1797 17.6298 24.0068 17.7264C23.834 17.823 23.6901 17.964 23.59 18.1348C23.4898 18.3056 23.437 18.5 23.4371 18.698Z" fill="white"/>
<rect x="1.5298" y="0.685008" width="53.8296" height="53.8296" rx="26.9148" stroke="white" stroke-width="1.25185"/>
</svg>
